<?xml version="1.0" encoding="UTF-8" standalone="no"?><svg xmlns="http://www.w3.org/2000/svg" xmlns:xlink="http://www.w3.org/1999/xlink" contentStyleType="text/css" height="376px" preserveAspectRatio="none" style="width:738px;height:376px;background:#FFFFFF;" version="1.1" viewBox="0 0 738 376" width="738px" zoomAndPan="magnify"><defs/><g><!--MD5=[b4fa10df80476353258f72a232547d63]
class AbstractList--><g id="elem_AbstractList"><rect codeLine="4" fill="#F1F1F1" height="48" id="AbstractList" rx="2.5" ry="2.5" style="stroke:#181818;stroke-width:0.5;" width="112" x="199.5" y="188.5"/><ellipse cx="214.5" cy="204.5" fill="#A9DCDF" rx="11" ry="11" style="stroke:#181818;stroke-width:1.0;"/><path d="M214.6094,199.8438 L213.4531,204.9219 L215.7813,204.9219 L214.6094,199.8438 Z M213.125,197.6094 L216.1094,197.6094 L219.4688,210 L217.0156,210 L216.25,206.9375 L212.9688,206.9375 L212.2188,210 L209.7813,210 L213.125,197.6094 Z " fill="#000000"/><text fill="#000000" font-family="sans-serif" font-size="14" font-style="italic" lengthAdjust="spacing" textLength="80" x="228.5" y="209.3467">AbstractList</text><line style="stroke:#181818;stroke-width:0.5;" x1="200.5" x2="310.5" y1="220.5" y2="220.5"/><line style="stroke:#181818;stroke-width:0.5;" x1="200.5" x2="310.5" y1="228.5" y2="228.5"/></g><!--MD5=[8e34b16d8d8f96f4a11290cd523ed859]
class AbstractCollection--><g id="elem_AbstractCollection"><rect codeLine="5" fill="#F1F1F1" height="48" id="AbstractCollection" rx="2.5" ry="2.5" style="stroke:#181818;stroke-width:0.5;" width="157" x="7" y="188.5"/><ellipse cx="22" cy="204.5" fill="#A9DCDF" rx="11" ry="11" style="stroke:#181818;stroke-width:1.0;"/><path d="M22.1094,199.8438 L20.9531,204.9219 L23.2813,204.9219 L22.1094,199.8438 Z M20.625,197.6094 L23.6094,197.6094 L26.9688,210 L24.5156,210 L23.75,206.9375 L20.4688,206.9375 L19.7188,210 L17.2813,210 L20.625,197.6094 Z " fill="#000000"/><text fill="#000000" font-family="sans-serif" font-size="14" font-style="italic" lengthAdjust="spacing" textLength="125" x="36" y="209.3467">AbstractCollection</text><line style="stroke:#181818;stroke-width:0.5;" x1="8" x2="163" y1="220.5" y2="220.5"/><line style="stroke:#181818;stroke-width:0.5;" x1="8" x2="163" y1="228.5" y2="228.5"/></g><!--MD5=[3d4177ac58b4411586d067f34e84928f]
class List--><g id="elem_List"><rect codeLine="6" fill="#F1F1F1" height="48" id="List" rx="2.5" ry="2.5" style="stroke:#181818;stroke-width:0.5;" width="55" x="200" y="31.5"/><ellipse cx="215" cy="47.5" fill="#B4A7E5" rx="11" ry="11" style="stroke:#181818;stroke-width:1.0;"/><path d="M210.9219,43.2656 L210.9219,41.1094 L218.3125,41.1094 L218.3125,43.2656 L215.8438,43.2656 L215.8438,51.3438 L218.3125,51.3438 L218.3125,53.5 L210.9219,53.5 L210.9219,51.3438 L213.3906,51.3438 L213.3906,43.2656 L210.9219,43.2656 Z " fill="#000000"/><text fill="#000000" font-family="sans-serif" font-size="14" font-style="italic" lengthAdjust="spacing" textLength="23" x="229" y="52.3467">List</text><line style="stroke:#181818;stroke-width:0.5;" x1="201" x2="254" y1="63.5" y2="63.5"/><line style="stroke:#181818;stroke-width:0.5;" x1="201" x2="254" y1="71.5" y2="71.5"/></g><!--MD5=[c160724f8e3bb89ca8141a12554ac2e3]
class Collection--><g id="elem_Collection"><rect codeLine="7" fill="#F1F1F1" height="48" id="Collection" rx="2.5" ry="2.5" style="stroke:#181818;stroke-width:0.5;" width="100" x="50.5" y="31.5"/><ellipse cx="65.5" cy="47.5" fill="#B4A7E5" rx="11" ry="11" style="stroke:#181818;stroke-width:1.0;"/><path d="M61.4219,43.2656 L61.4219,41.1094 L68.8125,41.1094 L68.8125,43.2656 L66.3438,43.2656 L66.3438,51.3438 L68.8125,51.3438 L68.8125,53.5 L61.4219,53.5 L61.4219,51.3438 L63.8906,51.3438 L63.8906,43.2656 L61.4219,43.2656 Z " fill="#000000"/><text fill="#000000" font-family="sans-serif" font-size="14" font-style="italic" lengthAdjust="spacing" textLength="68" x="79.5" y="52.3467">Collection</text><line style="stroke:#181818;stroke-width:0.5;" x1="51.5" x2="149.5" y1="63.5" y2="63.5"/><line style="stroke:#181818;stroke-width:0.5;" x1="51.5" x2="149.5" y1="71.5" y2="71.5"/></g><!--MD5=[1c737adbce52a80b78a8cad069f0f614]
class gcm--><g id="elem_gcm"><rect fill="#F1F1F1" height="48" id="gcm" rx="2.5" ry="2.5" style="stroke:#181818;stroke-width:0.5;" width="62" x="224.5" y="321"/><ellipse cx="239.5" cy="337" fill="#ADD1B2" rx="11" ry="11" style="stroke:#181818;stroke-width:1.0;"/><path d="M242.4688,342.6406 Q241.8906,342.9375 241.25,343.0781 Q240.6094,343.2344 239.9063,343.2344 Q237.4063,343.2344 236.0781,341.5938 Q234.7656,339.9375 234.7656,336.8125 Q234.7656,333.6875 236.0781,332.0313 Q237.4063,330.375 239.9063,330.375 Q240.6094,330.375 241.25,330.5313 Q241.9063,330.6875 242.4688,330.9844 L242.4688,333.7031 Q241.8438,333.125 241.25,332.8594 Q240.6563,332.5781 240.0313,332.5781 Q238.6875,332.5781 238,333.6563 Q237.3125,334.7188 237.3125,336.8125 Q237.3125,338.9063 238,339.9844 Q238.6875,341.0469 240.0313,341.0469 Q240.6563,341.0469 241.25,340.7813 Q241.8438,340.5 242.4688,339.9219 L242.4688,342.6406 Z " fill="#000000"/><text fill="#000000" font-family="sans-serif" font-size="14" lengthAdjust="spacing" textLength="30" x="253.5" y="341.8467">gcm</text><line style="stroke:#181818;stroke-width:0.5;" x1="225.5" x2="285.5" y1="353" y2="353"/><line style="stroke:#181818;stroke-width:0.5;" x1="225.5" x2="285.5" y1="361" y2="361"/></g><!--MD5=[ab8871ed637f40707b866ba6597734bc]
class ArrayList--><g id="elem_ArrayList"><rect codeLine="16" fill="#F1F1F1" height="96.8906" id="ArrayList" rx="2.5" ry="2.5" style="stroke:#181818;stroke-width:0.5;" width="160" x="347.5" y="7"/><ellipse cx="394.75" cy="23" fill="#ADD1B2" rx="11" ry="11" style="stroke:#181818;stroke-width:1.0;"/><path d="M397.7188,28.6406 Q397.1406,28.9375 396.5,29.0781 Q395.8594,29.2344 395.1563,29.2344 Q392.6563,29.2344 391.3281,27.5938 Q390.0156,25.9375 390.0156,22.8125 Q390.0156,19.6875 391.3281,18.0313 Q392.6563,16.375 395.1563,16.375 Q395.8594,16.375 396.5,16.5313 Q397.1563,16.6875 397.7188,16.9844 L397.7188,19.7031 Q397.0938,19.125 396.5,18.8594 Q395.9063,18.5781 395.2813,18.5781 Q393.9375,18.5781 393.25,19.6563 Q392.5625,20.7188 392.5625,22.8125 Q392.5625,24.9063 393.25,25.9844 Q393.9375,27.0469 395.2813,27.0469 Q395.9063,27.0469 396.5,26.7813 Q397.0938,26.5 397.7188,25.9219 L397.7188,28.6406 Z " fill="#000000"/><text fill="#000000" font-family="sans-serif" font-size="14" lengthAdjust="spacing" textLength="57" x="415.25" y="27.8467">ArrayList</text><line style="stroke:#181818;stroke-width:0.5;" x1="348.5" x2="506.5" y1="39" y2="39"/><text fill="#000000" font-family="sans-serif" font-size="14" lengthAdjust="spacing" textLength="148" x="353.5" y="55.9951">Object[] elementData</text><line style="stroke:#181818;stroke-width:0.5;" x1="348.5" x2="506.5" y1="63.2969" y2="63.2969"/><text fill="#000000" font-family="sans-serif" font-size="14" lengthAdjust="spacing" textLength="38" x="353.5" y="80.292">size()</text><text fill="#000000" font-family="sans-serif" font-size="14" lengthAdjust="spacing" textLength="103" x="353.5" y="96.5889">someChange()</text></g><!--MD5=[15b68e006199004da79ea2a4d117d8e9]
class TimeUnit--><g id="elem_TimeUnit"><rect codeLine="22" fill="#F1F1F1" height="96.8906" id="TimeUnit" rx="2.5" ry="2.5" style="stroke:#181818;stroke-width:0.5;" width="93" x="543" y="7"/><ellipse cx="558" cy="23" fill="#EB937F" rx="11" ry="11" style="stroke:#181818;stroke-width:1.0;"/><path d="M562.1094,29 L554.3906,29 L554.3906,16.6094 L562.1094,16.6094 L562.1094,18.7656 L556.8438,18.7656 L556.8438,21.4375 L561.6094,21.4375 L561.6094,23.5938 L556.8438,23.5938 L556.8438,26.8438 L562.1094,26.8438 L562.1094,29 Z " fill="#000000"/><text fill="#000000" font-family="sans-serif" font-size="14" lengthAdjust="spacing" textLength="61" x="572" y="27.8467">TimeUnit</text><line style="stroke:#181818;stroke-width:0.5;" x1="544" x2="635" y1="39" y2="39"/><text fill="#000000" font-family="sans-serif" font-size="14" lengthAdjust="spacing" textLength="38" x="549" y="55.9951">DAYS</text><text fill="#000000" font-family="sans-serif" font-size="14" lengthAdjust="spacing" textLength="50" x="549" y="72.292">HOURS</text><text fill="#000000" font-family="sans-serif" font-size="14" lengthAdjust="spacing" textLength="62" x="549" y="88.5889">MINUTES</text><line style="stroke:#181818;stroke-width:0.5;" x1="544" x2="635" y1="95.8906" y2="95.8906"/></g><!--MD5=[0c8287f799745f7b534bf75518604c1e]
class SuppressWarnings--><g id="elem_SuppressWarnings"><rect codeLine="28" fill="#F1F1F1" height="48" id="SuppressWarnings" rx="2.5" ry="2.5" style="stroke:#181818;stroke-width:0.5;" width="162" x="346.5" y="188.5"/><ellipse cx="361.5" cy="204.5" fill="#E3664A" rx="11" ry="11" style="stroke:#181818;stroke-width:1.0;"/><path d="M363.5781,204.9688 Q363.5781,204.0313 363.1563,203.5 Q362.7344,202.9688 361.9844,202.9688 Q361.25,202.9688 360.8281,203.5 Q360.4219,204.0313 360.4219,204.9688 Q360.4219,205.9219 360.8281,206.4531 Q361.25,206.9844 361.9844,206.9844 Q362.7344,206.9844 363.1563,206.4531 Q363.5781,205.9219 363.5781,204.9688 Z M365.125,208.375 L363.5,208.375 L363.5,207.7031 Q363.1719,208.1406 362.75,208.3438 Q362.3281,208.5469 361.7188,208.5469 Q360.3594,208.5469 359.5313,207.5781 Q358.7031,206.5938 358.7031,204.9688 Q358.7031,203.375 359.5313,202.4063 Q360.3594,201.4219 361.7188,201.4219 Q362.3125,201.4219 362.7656,201.625 Q363.2188,201.8281 363.5,202.2188 L363.5,201.875 Q363.5,200.75 362.875,200.1406 Q362.25,199.5156 361.1094,199.5156 Q359.3906,199.5156 358.2969,201.0469 Q357.2031,202.5625 357.2031,205 Q357.2031,207.5469 358.4531,209.0469 Q359.7188,210.5469 361.8281,210.5469 Q362.4844,210.5469 363.1094,210.3594 Q363.7344,210.1719 364.3125,209.7813 L365.0781,211.2344 Q364.4063,211.6875 363.6094,211.9063 Q362.8125,212.1406 361.9063,212.1406 Q359,212.1406 357.2656,210.2031 Q355.5469,208.2813 355.5469,205 Q355.5469,201.7813 357.0938,199.8594 Q358.6563,197.9219 361.2188,197.9219 Q363.0156,197.9219 364.0625,199.0156 Q365.125,200.1094 365.125,201.9844 L365.125,208.375 Z " fill="#000000"/><text fill="#000000" font-family="sans-serif" font-size="14" lengthAdjust="spacing" textLength="130" x="375.5" y="209.3467">SuppressWarnings</text><line style="stroke:#181818;stroke-width:0.5;" x1="347.5" x2="507.5" y1="220.5" y2="220.5"/><line style="stroke:#181818;stroke-width:0.5;" x1="347.5" x2="507.5" y1="228.5" y2="228.5"/></g><!--MD5=[faebc81c07309c527f2fda51bf6b78ab]
class Annotation--><g id="elem_Annotation"><rect codeLine="30" fill="#F1F1F1" height="96.8906" id="Annotation" rx="2.5" ry="2.5" style="stroke:#181818;stroke-width:0.5;" width="188" x="543.5" y="164"/><ellipse cx="595.75" cy="180" fill="#E3664A" rx="11" ry="11" style="stroke:#181818;stroke-width:1.0;"/><path d="M597.8281,180.4688 Q597.8281,179.5313 597.4063,179 Q596.9844,178.4688 596.2344,178.4688 Q595.5,178.4688 595.0781,179 Q594.6719,179.5313 594.6719,180.4688 Q594.6719,181.4219 595.0781,181.9531 Q595.5,182.4844 596.2344,182.4844 Q596.9844,182.4844 597.4063,181.9531 Q597.8281,181.4219 597.8281,180.4688 Z M599.375,183.875 L597.75,183.875 L597.75,183.2031 Q597.4219,183.6406 597,183.8438 Q596.5781,184.0469 595.9688,184.0469 Q594.6094,184.0469 593.7813,183.0781 Q592.9531,182.0938 592.9531,180.4688 Q592.9531,178.875 593.7813,177.9063 Q594.6094,176.9219 595.9688,176.9219 Q596.5625,176.9219 597.0156,177.125 Q597.4688,177.3281 597.75,177.7188 L597.75,177.375 Q597.75,176.25 597.125,175.6406 Q596.5,175.0156 595.3594,175.0156 Q593.6406,175.0156 592.5469,176.5469 Q591.4531,178.0625 591.4531,180.5 Q591.4531,183.0469 592.7031,184.5469 Q593.9688,186.0469 596.0781,186.0469 Q596.7344,186.0469 597.3594,185.8594 Q597.9844,185.6719 598.5625,185.2813 L599.3281,186.7344 Q598.6563,187.1875 597.8594,187.4063 Q597.0625,187.6406 596.1563,187.6406 Q593.25,187.6406 591.5156,185.7031 Q589.7969,183.7813 589.7969,180.5 Q589.7969,177.2813 591.3438,175.3594 Q592.9063,173.4219 595.4688,173.4219 Q597.2656,173.4219 598.3125,174.5156 Q599.375,175.6094 599.375,177.4844 L599.375,183.875 Z " fill="#000000"/><text fill="#000000" font-family="sans-serif" font-size="14" lengthAdjust="spacing" textLength="75" x="616.25" y="184.8467">Annotation</text><line style="stroke:#181818;stroke-width:0.5;" x1="544.5" x2="730.5" y1="196" y2="196"/><text fill="#000000" font-family="sans-serif" font-size="14" lengthAdjust="spacing" textLength="176" x="549.5" y="212.9951">annotation with members</text><line style="stroke:#181818;stroke-width:0.5;" x1="544.5" x2="730.5" y1="220.2969" y2="220.2969"/><text fill="#000000" font-family="sans-serif" font-size="14" lengthAdjust="spacing" textLength="76" x="549.5" y="237.292">String foo()</text><text fill="#000000" font-family="sans-serif" font-size="14" lengthAdjust="spacing" textLength="76" x="549.5" y="253.5889">String bar()</text></g><!--MD5=[00308d07b6a5721fb0cf5861877e6652]
reverse link List to AbstractList--><g id="link_List_AbstractList"><path codeLine="9" d="M235.32,99.79 C240.51,128.51 247.11,165.07 251.33,188.39 " fill="none" id="List-backto-AbstractList" style="stroke:#181818;stroke-width:1.0;"/><polygon fill="none" points="228.36,100.63,231.69,79.71,242.14,98.14,228.36,100.63" style="stroke:#181818;stroke-width:1.0;"/></g><!--MD5=[1822909749df1453bdd84de7a60a3406]
reverse link Collection to AbstractCollection--><g id="link_Collection_AbstractCollection"><path codeLine="10" d="M96.31,99.79 C93.53,128.51 89.99,165.07 87.74,188.39 " fill="none" id="Collection-backto-AbstractCollection" style="stroke:#181818;stroke-width:1.0;"/><polygon fill="none" points="89.36,98.94,98.25,79.71,103.3,100.29,89.36,98.94" style="stroke:#181818;stroke-width:1.0;"/></g><!--MD5=[0159284274f96a472eb2618ad803aaca]
reverse link Collection to List--><g id="link_Collection_List"><path codeLine="12" d="M170.62,55.5 C180.37,55.5 190.12,55.5 199.87,55.5 " fill="none" id="Collection-backto-List" style="stroke:#181818;stroke-width:1.0;"/><polygon fill="none" points="170.61,62.5,150.61,55.5,170.61,48.5,170.61,62.5" style="stroke:#181818;stroke-width:1.0;"/></g><!--MD5=[7a3a52e8f65ef1a8d8d29530ea5cd870]
reverse link AbstractCollection to AbstractList--><g id="link_AbstractCollection_AbstractList"><path codeLine="13" d="M184.4,212.5 C189.31,212.5 194.23,212.5 199.15,212.5 " fill="none" id="AbstractCollection-backto-AbstractList" style="stroke:#181818;stroke-width:1.0;"/><polygon fill="none" points="184.19,219.5,164.19,212.5,184.19,205.5,184.19,219.5" style="stroke:#181818;stroke-width:1.0;"/></g><!--MD5=[f7df8054f981df88b0c8ddb96452e2af]
reverse link AbstractList to gcm--><g id="link_AbstractList_gcm"><path codeLine="14" d="M255.5,256.68 C255.5,278.06 255.5,303.02 255.5,320.76 " fill="none" id="AbstractList-backto-gcm" style="stroke:#181818;stroke-width:1.0;"/><polygon fill="none" points="248.5,256.53,255.5,236.53,262.5,256.53,248.5,256.53" style="stroke:#181818;stroke-width:1.0;"/></g><!--MD5=[b29463bcb68f86e21693b1bbdcca485b]
link ArrayList to TimeUnit--></g></svg>