<?xml version="1.0" encoding="UTF-8" standalone="no"?><svg xmlns="http://www.w3.org/2000/svg" xmlns:xlink="http://www.w3.org/1999/xlink" contentStyleType="text/css" height="1278px" preserveAspectRatio="none" style="width:1410px;height:1278px;background:#FFFFFF;" version="1.1" viewBox="0 0 1410 1278" width="1410px" zoomAndPan="magnify"><defs/><g><g id="elem_u"><rect fill="#F1F1F1" height="142.375" style="stroke:#181818;stroke-width:0.5;" width="89" x="597" y="471"/><text fill="#000000" font-family="sans-serif" font-size="14" lengthAdjust="spacing" textLength="31" x="626" y="485.9951">user</text><line style="stroke:#181818;stroke-width:0.5;" x1="598" x2="685" y1="491.2969" y2="491.2969"/><text fill="#000000" font-family="sans-serif" font-size="14" lengthAdjust="spacing" textLength="39" x="603" y="508.292">name</text><text fill="#000000" font-family="sans-serif" font-size="14" lengthAdjust="spacing" textLength="77" x="603" y="524.5889">description</text><text fill="#000000" font-family="sans-serif" font-size="14" lengthAdjust="spacing" textLength="54" x="603" y="540.8857">location</text><text fill="#000000" font-family="sans-serif" font-size="14" lengthAdjust="spacing" textLength="25" x="603" y="557.1826">exp</text><text fill="#000000" font-family="sans-serif" font-size="14" lengthAdjust="spacing" textLength="68" x="603" y="573.4795">guildRank</text><text fill="#000000" font-family="sans-serif" font-size="14" font-style="italic" lengthAdjust="spacing" textLength="33" x="603" y="589.7764">guild</text><text fill="#000000" font-family="sans-serif" font-size="14" font-style="italic" lengthAdjust="spacing" textLength="56" x="603" y="606.0732">account</text></g><g id="elem_acc"><rect fill="#F1F1F1" height="44.5938" style="stroke:#181818;stroke-width:0.5;" width="78" x="283" y="1022.5"/><text fill="#000000" font-family="sans-serif" font-size="14" lengthAdjust="spacing" textLength="56" x="294" y="1037.4951">account</text><line style="stroke:#181818;stroke-width:0.5;" x1="284" x2="360" y1="1042.7969" y2="1042.7969"/><text fill="#000000" font-family="sans-serif" font-size="14" lengthAdjust="spacing" textLength="66" x="289" y="1059.792">supportId</text></g><g id="elem_accsm"><rect fill="#F1F1F1" height="60.8906" style="stroke:#181818;stroke-width:0.5;" width="167" x="558" y="1100"/><text fill="#000000" font-family="sans-serif" font-size="14" lengthAdjust="spacing" textLength="153" x="565" y="1114.9951">self managed account</text><line style="stroke:#181818;stroke-width:0.5;" x1="559" x2="724" y1="1120.2969" y2="1120.2969"/><text fill="#000000" font-family="sans-serif" font-size="14" lengthAdjust="spacing" textLength="36" x="564" y="1137.292">email</text><text fill="#000000" font-family="sans-serif" font-size="14" lengthAdjust="spacing" textLength="67" x="564" y="1153.5889">password</text></g><g id="elem_accf"><rect fill="#F1F1F1" height="44.5938" style="stroke:#181818;stroke-width:0.5;" width="142" x="570.5" y="1020"/><text fill="#000000" font-family="sans-serif" font-size="14" lengthAdjust="spacing" textLength="128" x="577.5" y="1034.9951">federated Account</text><line style="stroke:#181818;stroke-width:0.5;" x1="571.5" x2="711.5" y1="1040.2969" y2="1040.2969"/><text fill="#000000" font-family="sans-serif" font-size="14" lengthAdjust="spacing" textLength="60" x="576.5" y="1057.292">foreignId</text></g><g id="elem_us"><rect fill="#F1F1F1" height="77.1875" style="stroke:#181818;stroke-width:0.5;" width="103" x="961.5" y="303.5"/><text fill="#000000" font-family="sans-serif" font-size="14" lengthAdjust="spacing" textLength="89" x="968.5" y="318.4951">user session</text><line style="stroke:#181818;stroke-width:0.5;" x1="962.5" x2="1063.5" y1="323.7969" y2="323.7969"/><text fill="#000000" font-family="sans-serif" font-size="14" font-style="italic" lengthAdjust="spacing" textLength="30" x="967.5" y="340.792">user</text><text fill="#000000" font-family="sans-serif" font-size="14" lengthAdjust="spacing" textLength="40" x="967.5" y="357.0889">token</text><text fill="#000000" font-family="sans-serif" font-size="14" lengthAdjust="spacing" textLength="50" x="967.5" y="373.3857">expires</text></g><g id="elem_i"><rect fill="#F1F1F1" height="93.4844" style="stroke:#181818;stroke-width:0.5;" width="78" x="974" y="1178.5"/><text fill="#000000" font-family="sans-serif" font-size="14" lengthAdjust="spacing" textLength="30" x="998" y="1193.4951">item</text><line style="stroke:#181818;stroke-width:0.5;" x1="975" x2="1051" y1="1198.7969" y2="1198.7969"/><text fill="#000000" font-family="sans-serif" font-size="14" lengthAdjust="spacing" textLength="26" x="980" y="1215.792">ean</text><text fill="#000000" font-family="sans-serif" font-size="14" font-style="italic" lengthAdjust="spacing" textLength="61" x="980" y="1232.0889">materials</text><text fill="#000000" font-family="sans-serif" font-size="14" font-style="italic" lengthAdjust="spacing" textLength="66" x="980" y="1248.3857">reduction</text><text fill="#000000" font-family="sans-serif" font-size="14" lengthAdjust="spacing" textLength="49" x="980" y="1264.6826">verified</text></g><g id="elem_mt"><rect fill="#F1F1F1" height="60.8906" style="stroke:#181818;stroke-width:0.5;" width="102" x="1297" y="1113.5"/><text fill="#000000" font-family="sans-serif" font-size="14" lengthAdjust="spacing" textLength="88" x="1304" y="1128.4951">materialType</text><line style="stroke:#181818;stroke-width:0.5;" x1="1298" x2="1398" y1="1133.7969" y2="1133.7969"/><text fill="#000000" font-family="sans-serif" font-size="14" lengthAdjust="spacing" textLength="39" x="1303" y="1150.792">name</text><text fill="#000000" font-family="sans-serif" font-size="14" font-style="italic" lengthAdjust="spacing" textLength="88" x="1303" y="1167.0889">recyclingInfo</text></g><g id="elem_ri"><rect fill="#F1F1F1" height="60.8906" style="stroke:#181818;stroke-width:0.5;" width="100" x="963" y="1078"/><text fill="#000000" font-family="sans-serif" font-size="14" lengthAdjust="spacing" textLength="86" x="970" y="1092.9951">recyclingInfo</text><line style="stroke:#181818;stroke-width:0.5;" x1="964" x2="1062" y1="1098.2969" y2="1098.2969"/><text fill="#000000" font-family="sans-serif" font-size="14" lengthAdjust="spacing" textLength="44" x="969" y="1115.292">region</text><text fill="#000000" font-family="sans-serif" font-size="14" lengthAdjust="spacing" textLength="71" x="969" y="1131.5889">whatToDo</text></g><g id="elem_bp"><rect fill="#F1F1F1" height="109.7813" style="stroke:#181818;stroke-width:0.5;" width="103" x="961.5" y="509.5"/><text fill="#000000" font-family="sans-serif" font-size="14" lengthAdjust="spacing" textLength="65" x="980.5" y="524.4951">blog post</text><line style="stroke:#181818;stroke-width:0.5;" x1="962.5" x2="1063.5" y1="529.7969" y2="529.7969"/><text fill="#000000" font-family="sans-serif" font-size="14" font-style="italic" lengthAdjust="spacing" textLength="45" x="967.5" y="546.792">author</text><text fill="#000000" font-family="sans-serif" font-size="14" lengthAdjust="spacing" textLength="59" x="967.5" y="563.0889">blogTitle</text><text fill="#000000" font-family="sans-serif" font-size="14" lengthAdjust="spacing" textLength="31" x="967.5" y="579.3857">date</text><text fill="#000000" font-family="sans-serif" font-size="14" lengthAdjust="spacing" textLength="91" x="967.5" y="595.6826">updatedDate</text><text fill="#000000" font-family="sans-serif" font-size="14" font-style="italic" lengthAdjust="spacing" textLength="73" x="967.5" y="611.9795">comments</text></g><g id="elem_bc"><rect fill="#F1F1F1" height="93.4844" style="stroke:#181818;stroke-width:0.5;" width="112" x="1292" y="448.5"/><text fill="#000000" font-family="sans-serif" font-size="14" lengthAdjust="spacing" textLength="98" x="1299" y="463.4951">blogComment</text><line style="stroke:#181818;stroke-width:0.5;" x1="1293" x2="1403" y1="468.7969" y2="468.7969"/><text fill="#000000" font-family="sans-serif" font-size="14" font-style="italic" lengthAdjust="spacing" textLength="45" x="1298" y="485.792">author</text><text fill="#000000" font-family="sans-serif" font-size="14" font-style="italic" lengthAdjust="spacing" textLength="30" x="1298" y="502.0889">blog</text><text fill="#000000" font-family="sans-serif" font-size="14" lengthAdjust="spacing" textLength="31" x="1298" y="518.3857">date</text><text fill="#000000" font-family="sans-serif" font-size="14" lengthAdjust="spacing" textLength="54" x="1298" y="534.6826">content</text></g><g id="elem_g"><rect fill="#F1F1F1" height="109.7813" style="stroke:#181818;stroke-width:0.5;" width="110" x="32" y="529.5"/><text fill="#000000" font-family="sans-serif" font-size="14" lengthAdjust="spacing" textLength="33" x="70.5" y="544.4951">guild</text><line style="stroke:#181818;stroke-width:0.5;" x1="33" x2="141" y1="549.7969" y2="549.7969"/><text fill="#000000" font-family="sans-serif" font-size="14" lengthAdjust="spacing" textLength="39" x="38" y="566.792">name</text><text fill="#000000" font-family="sans-serif" font-size="14" lengthAdjust="spacing" textLength="77" x="38" y="583.0889">description</text><text fill="#000000" font-family="sans-serif" font-size="14" lengthAdjust="spacing" textLength="25" x="38" y="599.3857">exp</text><text fill="#000000" font-family="sans-serif" font-size="14" font-style="italic" lengthAdjust="spacing" textLength="98" x="38" y="615.6826">chatMessages</text><text fill="#000000" font-family="sans-serif" font-size="14" font-style="italic" lengthAdjust="spacing" textLength="65" x="38" y="631.9795">members</text></g><g id="elem_gcm"><rect fill="#F1F1F1" height="93.4844" style="stroke:#181818;stroke-width:0.5;" width="149" x="938.5" y="168.5"/><text fill="#000000" font-family="sans-serif" font-size="14" lengthAdjust="spacing" textLength="135" x="945.5" y="183.4951">guild chat message</text><line style="stroke:#181818;stroke-width:0.5;" x1="939.5" x2="1086.5" y1="188.7969" y2="188.7969"/><text fill="#000000" font-family="sans-serif" font-size="14" font-style="italic" lengthAdjust="spacing" textLength="45" x="944.5" y="205.792">author</text><text fill="#000000" font-family="sans-serif" font-size="14" font-style="italic" lengthAdjust="spacing" textLength="33" x="944.5" y="222.0889">guild</text><text fill="#000000" font-family="sans-serif" font-size="14" lengthAdjust="spacing" textLength="31" x="944.5" y="238.3857">date</text><text fill="#000000" font-family="sans-serif" font-size="14" lengthAdjust="spacing" textLength="64" x="944.5" y="254.6826">message</text></g><g id="elem_cb"><rect fill="#F1F1F1" height="191.2656" style="stroke:#181818;stroke-width:0.5;" width="130" x="257" y="721"/><text fill="#000000" font-family="sans-serif" font-size="14" lengthAdjust="spacing" textLength="105" x="269.5" y="735.9951">challenge base</text><line style="stroke:#181818;stroke-width:0.5;" x1="258" x2="386" y1="741.2969" y2="741.2969"/><text fill="#000000" font-family="sans-serif" font-size="14" lengthAdjust="spacing" textLength="39" x="263" y="758.292">name</text><text fill="#000000" font-family="sans-serif" font-size="14" lengthAdjust="spacing" textLength="72" x="263" y="774.5889">desciption</text><text fill="#000000" font-family="sans-serif" font-size="14" lengthAdjust="spacing" textLength="93" x="263" y="790.8857">daily-available</text><text fill="#000000" font-family="sans-serif" font-size="14" lengthAdjust="spacing" textLength="88" x="263" y="807.1826">daily-amount</text><text fill="#000000" font-family="sans-serif" font-size="14" lengthAdjust="spacing" textLength="118" x="263" y="823.4795">monthly-available</text><text fill="#000000" font-family="sans-serif" font-size="14" lengthAdjust="spacing" textLength="113" x="263" y="839.7764">monthly-amount</text><text fill="#000000" font-family="sans-serif" font-size="14" lengthAdjust="spacing" textLength="105" x="263" y="856.0732">guilde-available</text><text fill="#000000" font-family="sans-serif" font-size="14" lengthAdjust="spacing" textLength="91" x="263" y="872.3701">guild-amount</text><text fill="#000000" font-family="sans-serif" font-size="14" lengthAdjust="spacing" textLength="104" x="263" y="888.667">guild-multiplyer</text><text fill="#000000" font-family="sans-serif" font-size="14" lengthAdjust="spacing" textLength="25" x="263" y="904.9639">exp</text></g><g id="elem_c"><rect fill="#F1F1F1" height="93.4844" style="stroke:#181818;stroke-width:0.5;" width="113" x="585" y="816.5"/><text fill="#000000" font-family="sans-serif" font-size="14" lengthAdjust="spacing" textLength="67" x="608" y="831.4951">challenge</text><line style="stroke:#181818;stroke-width:0.5;" x1="586" x2="697" y1="836.7969" y2="836.7969"/><text fill="#000000" font-family="sans-serif" font-size="14" font-style="italic" lengthAdjust="spacing" textLength="101" x="591" y="853.792">challengeBase</text><text fill="#000000" font-family="sans-serif" font-size="14" lengthAdjust="spacing" textLength="64" x="591" y="870.0889">startDate</text><text fill="#000000" font-family="sans-serif" font-size="14" lengthAdjust="spacing" textLength="60" x="591" y="886.3857">endDate</text><text fill="#000000" font-family="sans-serif" font-size="14" lengthAdjust="spacing" textLength="30" x="591" y="902.6826">type</text></g><g id="elem_ucee"><rect fill="#F1F1F1" height="109.7813" style="stroke:#181818;stroke-width:0.5;" width="240" x="893" y="779.5"/><text fill="#000000" font-family="sans-serif" font-size="14" lengthAdjust="spacing" textLength="226" x="900" y="794.4951">user challenge experience event</text><line style="stroke:#181818;stroke-width:0.5;" x1="894" x2="1132" y1="799.7969" y2="799.7969"/><text fill="#000000" font-family="sans-serif" font-size="14" font-style="italic" lengthAdjust="spacing" textLength="30" x="899" y="816.792">user</text><text fill="#000000" font-family="sans-serif" font-size="14" font-style="italic" lengthAdjust="spacing" textLength="67" x="899" y="833.0889">challenge</text><text fill="#000000" font-family="sans-serif" font-size="14" lengthAdjust="spacing" textLength="54" x="899" y="849.3857">counter</text><text fill="#000000" font-family="sans-serif" font-size="14" lengthAdjust="spacing" textLength="43" x="899" y="865.6826">status</text><text fill="#000000" font-family="sans-serif" font-size="14" lengthAdjust="spacing" textLength="31" x="899" y="881.9795">date</text></g><g id="elem_gcee"><rect fill="#F1F1F1" height="109.7813" style="stroke:#181818;stroke-width:0.5;" width="242" x="892" y="930.5"/><text fill="#000000" font-family="sans-serif" font-size="14" lengthAdjust="spacing" textLength="228" x="899" y="945.4951">guild challenge experience event</text><line style="stroke:#181818;stroke-width:0.5;" x1="893" x2="1133" y1="950.7969" y2="950.7969"/><text fill="#000000" font-family="sans-serif" font-size="14" font-style="italic" lengthAdjust="spacing" textLength="33" x="898" y="967.792">guild</text><text fill="#000000" font-family="sans-serif" font-size="14" font-style="italic" lengthAdjust="spacing" textLength="67" x="898" y="984.0889">challenge</text><text fill="#000000" font-family="sans-serif" font-size="14" lengthAdjust="spacing" textLength="54" x="898" y="1000.3857">counter</text><text fill="#000000" font-family="sans-serif" font-size="14" lengthAdjust="spacing" textLength="43" x="898" y="1016.6826">status</text><text fill="#000000" font-family="sans-serif" font-size="14" lengthAdjust="spacing" textLength="31" x="898" y="1032.9795">date</text></g><g id="elem_r"><rect fill="#F1F1F1" height="126.0781" style="stroke:#181818;stroke-width:0.5;" width="95" x="594" y="651.5"/><text fill="#000000" font-family="sans-serif" font-size="14" lengthAdjust="spacing" textLength="66" x="608.5" y="666.4951">reduction</text><line style="stroke:#181818;stroke-width:0.5;" x1="595" x2="688" y1="671.7969" y2="671.7969"/><text fill="#000000" font-family="sans-serif" font-size="14" lengthAdjust="spacing" textLength="39" x="600" y="688.792">name</text><text fill="#000000" font-family="sans-serif" font-size="14" lengthAdjust="spacing" textLength="77" x="600" y="705.0889">description</text><text fill="#000000" font-family="sans-serif" font-size="14" lengthAdjust="spacing" textLength="26" x="600" y="721.3857">co2</text><text fill="#000000" font-family="sans-serif" font-size="14" lengthAdjust="spacing" textLength="38" x="600" y="737.6826">water</text><text fill="#000000" font-family="sans-serif" font-size="14" lengthAdjust="spacing" textLength="83" x="600" y="753.9795">trashWeight</text><text fill="#000000" font-family="sans-serif" font-size="14" lengthAdjust="spacing" textLength="25" x="600" y="770.2764">exp</text></g><g id="elem_ree"><rect fill="#F1F1F1" height="77.1875" style="stroke:#181818;stroke-width:0.5;" width="152" x="937" y="660.5"/><text fill="#000000" font-family="sans-serif" font-size="14" lengthAdjust="spacing" textLength="138" x="944" y="675.4951">reduction exp event</text><line style="stroke:#181818;stroke-width:0.5;" x1="938" x2="1088" y1="680.7969" y2="680.7969"/><text fill="#000000" font-family="sans-serif" font-size="14" font-style="italic" lengthAdjust="spacing" textLength="30" x="943" y="697.792">user</text><text fill="#000000" font-family="sans-serif" font-size="14" lengthAdjust="spacing" textLength="31" x="943" y="714.0889">date</text><text fill="#000000" font-family="sans-serif" font-size="14" font-style="italic" lengthAdjust="spacing" textLength="66" x="943" y="730.3857">reduction</text></g><g id="elem_cv"><rect fill="#F1F1F1" height="60.8906" style="stroke:#181818;stroke-width:0.5;" width="143" x="15.5" y="7"/><text fill="#000000" font-family="sans-serif" font-size="14" lengthAdjust="spacing" textLength="129" x="22.5" y="21.9951">comparison values</text><line style="stroke:#181818;stroke-width:0.5;" x1="16.5" x2="157.5" y1="27.2969" y2="27.2969"/><text fill="#000000" font-family="sans-serif" font-size="14" lengthAdjust="spacing" textLength="30" x="21.5" y="44.292">type</text><text fill="#000000" font-family="sans-serif" font-size="14" lengthAdjust="spacing" textLength="36" x="21.5" y="60.5889">value</text></g><!--MD5=[b4fa10df80476353258f72a232547d63]
class AbstractList--><g id="elem_AbstractList"><rect codeLine="4" fill="#F1F1F1" height="48" id="AbstractList" rx="2.5" ry="2.5" style="stroke:#181818;stroke-width:0.5;" width="112" x="585.5" y="383.5"/><ellipse cx="600.5" cy="399.5" fill="#A9DCDF" rx="11" ry="11" style="stroke:#181818;stroke-width:1.0;"/><path d="M600.6094,394.8438 L599.4531,399.9219 L601.7813,399.9219 L600.6094,394.8438 Z M599.125,392.6094 L602.1094,392.6094 L605.4688,405 L603.0156,405 L602.25,401.9375 L598.9688,401.9375 L598.2188,405 L595.7813,405 L599.125,392.6094 Z " fill="#000000"/><text fill="#000000" font-family="sans-serif" font-size="14" font-style="italic" lengthAdjust="spacing" textLength="80" x="614.5" y="404.3467">AbstractList</text><line style="stroke:#181818;stroke-width:0.5;" x1="586.5" x2="696.5" y1="415.5" y2="415.5"/><line style="stroke:#181818;stroke-width:0.5;" x1="586.5" x2="696.5" y1="423.5" y2="423.5"/></g><!--MD5=[8e34b16d8d8f96f4a11290cd523ed859]
class AbstractCollection--><g id="elem_AbstractCollection"><rect codeLine="5" fill="#F1F1F1" height="48" id="AbstractCollection" rx="2.5" ry="2.5" style="stroke:#181818;stroke-width:0.5;" width="157" x="563" y="300.5"/><ellipse cx="578" cy="316.5" fill="#A9DCDF" rx="11" ry="11" style="stroke:#181818;stroke-width:1.0;"/><path d="M578.1094,311.8438 L576.9531,316.9219 L579.2813,316.9219 L578.1094,311.8438 Z M576.625,309.6094 L579.6094,309.6094 L582.9688,322 L580.5156,322 L579.75,318.9375 L576.4688,318.9375 L575.7188,322 L573.2813,322 L576.625,309.6094 Z " fill="#000000"/><text fill="#000000" font-family="sans-serif" font-size="14" font-style="italic" lengthAdjust="spacing" textLength="125" x="592" y="321.3467">AbstractCollection</text><line style="stroke:#181818;stroke-width:0.5;" x1="564" x2="719" y1="332.5" y2="332.5"/><line style="stroke:#181818;stroke-width:0.5;" x1="564" x2="719" y1="340.5" y2="340.5"/></g><!--MD5=[3d4177ac58b4411586d067f34e84928f]
class List--><g id="elem_List"><rect codeLine="6" fill="#F1F1F1" height="48" id="List" rx="2.5" ry="2.5" style="stroke:#181818;stroke-width:0.5;" width="55" x="294.5" y="383.5"/><ellipse cx="309.5" cy="399.5" fill="#B4A7E5" rx="11" ry="11" style="stroke:#181818;stroke-width:1.0;"/><path d="M305.4219,395.2656 L305.4219,393.1094 L312.8125,393.1094 L312.8125,395.2656 L310.3438,395.2656 L310.3438,403.3438 L312.8125,403.3438 L312.8125,405.5 L305.4219,405.5 L305.4219,403.3438 L307.8906,403.3438 L307.8906,395.2656 L305.4219,395.2656 Z " fill="#000000"/><text fill="#000000" font-family="sans-serif" font-size="14" font-style="italic" lengthAdjust="spacing" textLength="23" x="323.5" y="404.3467">List</text><line style="stroke:#181818;stroke-width:0.5;" x1="295.5" x2="348.5" y1="415.5" y2="415.5"/><line style="stroke:#181818;stroke-width:0.5;" x1="295.5" x2="348.5" y1="423.5" y2="423.5"/></g><!--MD5=[c160724f8e3bb89ca8141a12554ac2e3]
class Collection--><g id="elem_Collection"><rect codeLine="7" fill="#F1F1F1" height="48" id="Collection" rx="2.5" ry="2.5" style="stroke:#181818;stroke-width:0.5;" width="100" x="272" y="300.5"/><ellipse cx="287" cy="316.5" fill="#B4A7E5" rx="11" ry="11" style="stroke:#181818;stroke-width:1.0;"/><path d="M282.9219,312.2656 L282.9219,310.1094 L290.3125,310.1094 L290.3125,312.2656 L287.8438,312.2656 L287.8438,320.3438 L290.3125,320.3438 L290.3125,322.5 L282.9219,322.5 L282.9219,320.3438 L285.3906,320.3438 L285.3906,312.2656 L282.9219,312.2656 Z " fill="#000000"/><text fill="#000000" font-family="sans-serif" font-size="14" font-style="italic" lengthAdjust="spacing" textLength="68" x="301" y="321.3467">Collection</text><line style="stroke:#181818;stroke-width:0.5;" x1="273" x2="371" y1="332.5" y2="332.5"/><line style="stroke:#181818;stroke-width:0.5;" x1="273" x2="371" y1="340.5" y2="340.5"/></g><!--MD5=[ab8871ed637f40707b866ba6597734bc]
class ArrayList--><g id="elem_ArrayList"><rect codeLine="16" fill="#F1F1F1" height="80.5938" id="ArrayList" rx="2.5" ry="2.5" style="stroke:#181818;stroke-width:0.5;" width="160" x="7" y="103"/><ellipse cx="54.25" cy="119" fill="#ADD1B2" rx="11" ry="11" style="stroke:#181818;stroke-width:1.0;"/><path d="M57.2188,124.6406 Q56.6406,124.9375 56,125.0781 Q55.3594,125.2344 54.6563,125.2344 Q52.1563,125.2344 50.8281,123.5938 Q49.5156,121.9375 49.5156,118.8125 Q49.5156,115.6875 50.8281,114.0313 Q52.1563,112.375 54.6563,112.375 Q55.3594,112.375 56,112.5313 Q56.6563,112.6875 57.2188,112.9844 L57.2188,115.7031 Q56.5938,115.125 56,114.8594 Q55.4063,114.5781 54.7813,114.5781 Q53.4375,114.5781 52.75,115.6563 Q52.0625,116.7188 52.0625,118.8125 Q52.0625,120.9063 52.75,121.9844 Q53.4375,123.0469 54.7813,123.0469 Q55.4063,123.0469 56,122.7813 Q56.5938,122.5 57.2188,121.9219 L57.2188,124.6406 Z " fill="#000000"/><text fill="#000000" font-family="sans-serif" font-size="14" lengthAdjust="spacing" textLength="57" x="74.75" y="123.8467">ArrayList</text><line style="stroke:#181818;stroke-width:0.5;" x1="8" x2="166" y1="135" y2="135"/><text fill="#000000" font-family="sans-serif" font-size="14" lengthAdjust="spacing" textLength="148" x="13" y="151.9951">Object[] elementData</text><line style="stroke:#181818;stroke-width:0.5;" x1="8" x2="166" y1="159.2969" y2="159.2969"/><text fill="#000000" font-family="sans-serif" font-size="14" lengthAdjust="spacing" textLength="38" x="13" y="176.292">size()</text></g><!--MD5=[15b68e006199004da79ea2a4d117d8e9]
class TimeUnit--><g id="elem_TimeUnit"><rect codeLine="21" fill="#F1F1F1" height="96.8906" id="TimeUnit" rx="2.5" ry="2.5" style="stroke:#181818;stroke-width:0.5;" width="93" x="40.5" y="219"/><ellipse cx="55.5" cy="235" fill="#EB937F" rx="11" ry="11" style="stroke:#181818;stroke-width:1.0;"/><path d="M59.6094,241 L51.8906,241 L51.8906,228.6094 L59.6094,228.6094 L59.6094,230.7656 L54.3438,230.7656 L54.3438,233.4375 L59.1094,233.4375 L59.1094,235.5938 L54.3438,235.5938 L54.3438,238.8438 L59.6094,238.8438 L59.6094,241 Z " fill="#000000"/><text fill="#000000" font-family="sans-serif" font-size="14" lengthAdjust="spacing" textLength="61" x="69.5" y="239.8467">TimeUnit</text><line style="stroke:#181818;stroke-width:0.5;" x1="41.5" x2="132.5" y1="251" y2="251"/><text fill="#000000" font-family="sans-serif" font-size="14" lengthAdjust="spacing" textLength="38" x="46.5" y="267.9951">DAYS</text><text fill="#000000" font-family="sans-serif" font-size="14" lengthAdjust="spacing" textLength="50" x="46.5" y="284.292">HOURS</text><text fill="#000000" font-family="sans-serif" font-size="14" lengthAdjust="spacing" textLength="62" x="46.5" y="300.5889">MINUTES</text><line style="stroke:#181818;stroke-width:0.5;" x1="41.5" x2="132.5" y1="307.8906" y2="307.8906"/></g><!--MD5=[0c8287f799745f7b534bf75518604c1e]
class SuppressWarnings--><g id="elem_SuppressWarnings"><rect codeLine="27" fill="#F1F1F1" height="48" id="SuppressWarnings" rx="2.5" ry="2.5" style="stroke:#181818;stroke-width:0.5;" width="162" x="241" y="13.5"/><ellipse cx="256" cy="29.5" fill="#E3664A" rx="11" ry="11" style="stroke:#181818;stroke-width:1.0;"/><path d="M258.0781,29.9688 Q258.0781,29.0313 257.6563,28.5 Q257.2344,27.9688 256.4844,27.9688 Q255.75,27.9688 255.3281,28.5 Q254.9219,29.0313 254.9219,29.9688 Q254.9219,30.9219 255.3281,31.4531 Q255.75,31.9844 256.4844,31.9844 Q257.2344,31.9844 257.6563,31.4531 Q258.0781,30.9219 258.0781,29.9688 Z M259.625,33.375 L258,33.375 L258,32.7031 Q257.6719,33.1406 257.25,33.3438 Q256.8281,33.5469 256.2188,33.5469 Q254.8594,33.5469 254.0313,32.5781 Q253.2031,31.5938 253.2031,29.9688 Q253.2031,28.375 254.0313,27.4063 Q254.8594,26.4219 256.2188,26.4219 Q256.8125,26.4219 257.2656,26.625 Q257.7188,26.8281 258,27.2188 L258,26.875 Q258,25.75 257.375,25.1406 Q256.75,24.5156 255.6094,24.5156 Q253.8906,24.5156 252.7969,26.0469 Q251.7031,27.5625 251.7031,30 Q251.7031,32.5469 252.9531,34.0469 Q254.2188,35.5469 256.3281,35.5469 Q256.9844,35.5469 257.6094,35.3594 Q258.2344,35.1719 258.8125,34.7813 L259.5781,36.2344 Q258.9063,36.6875 258.1094,36.9063 Q257.3125,37.1406 256.4063,37.1406 Q253.5,37.1406 251.7656,35.2031 Q250.0469,33.2813 250.0469,30 Q250.0469,26.7813 251.5938,24.8594 Q253.1563,22.9219 255.7188,22.9219 Q257.5156,22.9219 258.5625,24.0156 Q259.625,25.1094 259.625,26.9844 L259.625,33.375 Z " fill="#000000"/><text fill="#000000" font-family="sans-serif" font-size="14" lengthAdjust="spacing" textLength="130" x="270" y="34.3467">SuppressWarnings</text><line style="stroke:#181818;stroke-width:0.5;" x1="242" x2="402" y1="45.5" y2="45.5"/><line style="stroke:#181818;stroke-width:0.5;" x1="242" x2="402" y1="53.5" y2="53.5"/></g><!--MD5=[faebc81c07309c527f2fda51bf6b78ab]
class Annotation--><g id="elem_Annotation"><rect codeLine="29" fill="#F1F1F1" height="96.8906" id="Annotation" rx="2.5" ry="2.5" style="stroke:#181818;stroke-width:0.5;" width="188" x="228" y="97"/><ellipse cx="280.25" cy="113" fill="#E3664A" rx="11" ry="11" style="stroke:#181818;stroke-width:1.0;"/><path d="M282.3281,113.4688 Q282.3281,112.5313 281.9063,112 Q281.4844,111.4688 280.7344,111.4688 Q280,111.4688 279.5781,112 Q279.1719,112.5313 279.1719,113.4688 Q279.1719,114.4219 279.5781,114.9531 Q280,115.4844 280.7344,115.4844 Q281.4844,115.4844 281.9063,114.9531 Q282.3281,114.4219 282.3281,113.4688 Z M283.875,116.875 L282.25,116.875 L282.25,116.2031 Q281.9219,116.6406 281.5,116.8438 Q281.0781,117.0469 280.4688,117.0469 Q279.1094,117.0469 278.2813,116.0781 Q277.4531,115.0938 277.4531,113.4688 Q277.4531,111.875 278.2813,110.9063 Q279.1094,109.9219 280.4688,109.9219 Q281.0625,109.9219 281.5156,110.125 Q281.9688,110.3281 282.25,110.7188 L282.25,110.375 Q282.25,109.25 281.625,108.6406 Q281,108.0156 279.8594,108.0156 Q278.1406,108.0156 277.0469,109.5469 Q275.9531,111.0625 275.9531,113.5 Q275.9531,116.0469 277.2031,117.5469 Q278.4688,119.0469 280.5781,119.0469 Q281.2344,119.0469 281.8594,118.8594 Q282.4844,118.6719 283.0625,118.2813 L283.8281,119.7344 Q283.1563,120.1875 282.3594,120.4063 Q281.5625,120.6406 280.6563,120.6406 Q277.75,120.6406 276.0156,118.7031 Q274.2969,116.7813 274.2969,113.5 Q274.2969,110.2813 275.8438,108.3594 Q277.4063,106.4219 279.9688,106.4219 Q281.7656,106.4219 282.8125,107.5156 Q283.875,108.6094 283.875,110.4844 L283.875,116.875 Z " fill="#000000"/><text fill="#000000" font-family="sans-serif" font-size="14" lengthAdjust="spacing" textLength="75" x="300.75" y="117.8467">Annotation</text><line style="stroke:#181818;stroke-width:0.5;" x1="229" x2="415" y1="129" y2="129"/><text fill="#000000" font-family="sans-serif" font-size="14" lengthAdjust="spacing" textLength="176" x="234" y="145.9951">annotation with members</text><line style="stroke:#181818;stroke-width:0.5;" x1="229" x2="415" y1="153.2969" y2="153.2969"/><text fill="#000000" font-family="sans-serif" font-size="14" lengthAdjust="spacing" textLength="76" x="234" y="170.292">String foo()</text><text fill="#000000" font-family="sans-serif" font-size="14" lengthAdjust="spacing" textLength="76" x="234" y="186.5889">String bar()</text></g><!--MD5=[c8fdd8c5eecc313c05e608712b0a1a03]
reverse link acc to accsm--><g id="link_acc_accsm"><path codeLine="30" d="M388.66,1062.28 C437.75,1075.58 505.21,1093.85 557.95,1108.14 " fill="none" id="acc-backto-accsm" style="stroke:#181818;stroke-width:1.0;"/><polygon fill="none" points="386.64,1068.99,369.17,1057.01,390.3,1055.48,386.64,1068.99" style="stroke:#181818;stroke-width:1.0;"/></g><!--MD5=[032c326e318ec8180766ecd587b6aef3]
reverse link acc to accf--><g id="link_acc_accf"><path codeLine="31" d="M389.4,1044.08 C442.34,1043.75 516.3,1043.28 570.23,1042.94 " fill="none" id="acc-backto-accf" style="stroke:#181818;stroke-width:1.0;"/><polygon fill="none" points="389.21,1051.08,369.17,1044.21,389.12,1037.08,389.21,1051.08" style="stroke:#181818;stroke-width:1.0;"/></g><!--MD5=[142394db7dc2a12ad6444388aee6e132]
reverse link acc to u--><g id="link_acc_u"><path codeLine="142" d="M358.54,1008.91 C378.08,987.51 401.27,958.82 416,929.5 C440.1,881.53 424.78,861.81 446,812.5 C482.94,726.64 501.91,709.27 558,634.5 C567.46,621.9 578.23,608.92 588.79,596.81 " fill="none" id="acc-backto-u" style="stroke:#181818;stroke-width:1.0;"/><polygon fill="#181818" points="349.58,1018.5,356.5999,1016.8505,357.7772,1009.7361,350.7573,1011.3857,349.58,1018.5" style="stroke:#181818;stroke-width:1.0;"/><text fill="#000000" font-family="sans-serif" font-size="13" lengthAdjust="spacing" textLength="80" x="447" y="672.5669">identified via</text><text fill="#000000" font-family="sans-serif" font-size="13" lengthAdjust="spacing" textLength="8" x="344.4538" y="1011.456">1</text><text fill="#000000" font-family="sans-serif" font-size="13" lengthAdjust="spacing" textLength="8" x="580.79" y="608.8769">1</text></g><!--MD5=[9bf80fcdf049d76800bd6df05f5ff2aa]
reverse link u to us--><g id="link_u_us"><path codeLine="144" d="M703.11,475.29 C710.6,466.71 718.05,457.96 725,449.5 C739.1,432.32 737.12,422.7 755,409.5 C833.26,351.71 863.72,335.5 961,335.5 " fill="none" id="u-backto-us" style="stroke:#181818;stroke-width:1.0;"/><polygon fill="#181818" points="694.34,485.25,701.3066,483.388,702.2672,476.2412,695.3007,478.1032,694.34,485.25" style="stroke:#181818;stroke-width:1.0;"/><text fill="#000000" font-family="sans-serif" font-size="13" lengthAdjust="spacing" textLength="60" x="774.5" y="346.5669">issued by</text><text fill="#000000" font-family="sans-serif" font-size="13" lengthAdjust="spacing" textLength="8" x="694.34" y="482.3169">1</text><text fill="#000000" font-family="sans-serif" font-size="13" lengthAdjust="spacing" textLength="7" x="946.5422" y="347.6976">*</text></g><!--MD5=[00d1b0ba50fd8c9252bf6143000178ea]
reverse link c to ucee--><g id="link_c_ucee"><path codeLine="147" d="M719.36,861.29 C759.9,859.23 810.19,854.41 854,843.5 C871.78,839.07 873.68,827.5 892,827.5 " fill="none" id="c-backto-ucee" style="stroke:#181818;stroke-width:1.0;"/><polygon fill="#181818" points="706.28,861.88,712.4541,865.6056,718.2678,861.3393,712.0937,857.6137,706.28,861.88" style="stroke:#181818;stroke-width:1.0;"/><text fill="#000000" font-family="sans-serif" font-size="13" lengthAdjust="spacing" textLength="49" x="780" y="839.5669">realizes</text><text fill="#000000" font-family="sans-serif" font-size="13" lengthAdjust="spacing" textLength="8" x="706.28" y="873.9469">1</text><text fill="#000000" font-family="sans-serif" font-size="13" lengthAdjust="spacing" textLength="7" x="878.1914" y="839.6039">*</text></g><!--MD5=[47f7131a8dd847799f61a32cc240e9ea]
reverse link u to ucee--><g id="link_u_ucee"><path codeLine="148" d="M702.76,601.5 C711.09,611.92 718.88,623.09 725,634.5 C749.57,680.28 721.66,707.64 755,747.5 C798.12,799.05 824.79,811.5 892,811.5 " fill="none" id="u-backto-ucee" style="stroke:#181818;stroke-width:1.0;"/><polygon fill="#181818" points="694.29,591.36,695.0663,598.5292,701.9826,600.57,701.2063,593.4008,694.29,591.36" style="stroke:#181818;stroke-width:1.0;"/><text fill="#000000" font-family="sans-serif" font-size="13" lengthAdjust="spacing" textLength="77" x="766" y="743.5669">triggered by</text><text fill="#000000" font-family="sans-serif" font-size="13" lengthAdjust="spacing" textLength="8" x="694.29" y="603.4269">1</text><text fill="#000000" font-family="sans-serif" font-size="13" lengthAdjust="spacing" textLength="7" x="878.1914" y="822.7289">*</text></g><!--MD5=[6b43a9a456074439aaf74bc62d143416]
reverse link r to ree--><g id="link_r_ree"><path codeLine="151" d="M702.47,717.74 C761.77,720.66 855.12,724.5 936,724.5 " fill="none" id="r-backto-ree" style="stroke:#181818;stroke-width:1.0;"/><polygon fill="#181818" points="689.25,717.08,695.0402,721.3781,701.2347,717.6865,695.4445,713.3884,689.25,717.08" style="stroke:#181818;stroke-width:1.0;"/><text fill="#000000" font-family="sans-serif" font-size="13" lengthAdjust="spacing" textLength="49" x="780" y="715.5669">realizes</text><text fill="#000000" font-family="sans-serif" font-size="13" lengthAdjust="spacing" textLength="8" x="696.8508" y="730.6314">1</text><text fill="#000000" font-family="sans-serif" font-size="13" lengthAdjust="spacing" textLength="7" x="922.082" y="739.4005">*</text></g><!--MD5=[453a377de815ce89d9abe59020ba1a84]
reverse link u to ree--><g id="link_u_ree"><path codeLine="152" d="M704.6,595.45 C761,638.8 848.52,692.5 936,692.5 " fill="none" id="u-backto-ree" style="stroke:#181818;stroke-width:1.0;"/><polygon fill="#181818" points="694.09,587.21,696.3459,594.0591,703.5359,594.611,701.28,587.7619,694.09,587.21" style="stroke:#181818;stroke-width:1.0;"/><text fill="#000000" font-family="sans-serif" font-size="13" lengthAdjust="spacing" textLength="77" x="766" y="630.5669">triggered by</text><text fill="#000000" font-family="sans-serif" font-size="13" lengthAdjust="spacing" textLength="8" x="694.09" y="584.2769">1</text><text fill="#000000" font-family="sans-serif" font-size="13" lengthAdjust="spacing" textLength="7" x="922.082" y="704.6505">*</text></g><!--MD5=[412a712fdaed9a0fa5a63ad7ed584fab]
reverse link ri to mt--><g id="link_ri_mt"><path codeLine="155" d="M1075.83,1126.97 C1132.55,1142.26 1219.17,1161.5 1296,1161.5 " fill="none" id="ri-backto-mt" style="stroke:#181818;stroke-width:1.0;"/><polygon fill="none" points="1063.14,1123.48,1067.8656,1128.9269,1074.7111,1126.6597,1069.9854,1121.2128,1063.14,1123.48" style="stroke:#181818;stroke-width:1.0;"/><text fill="#000000" font-family="sans-serif" font-size="13" lengthAdjust="spacing" textLength="80" x="1173" y="1145.5669">explained by</text><text fill="#000000" font-family="sans-serif" font-size="13" lengthAdjust="spacing" textLength="7" x="1071.0184" y="1138.8664">*</text><text fill="#000000" font-family="sans-serif" font-size="13" lengthAdjust="spacing" textLength="7" x="1281.8891" y="1176.7855">*</text></g><!--MD5=[0c302febe5e1aaa4be9f9b2afc30c763]
reverse link r to i--><g id="link_r_i"><path codeLine="156" d="M698.67,760.08 C708.8,770.72 718.27,782.72 725,795.5 C760.74,863.39 726.23,894.37 755,965.5 C793.41,1060.46 807.84,1087.99 884,1156.5 C907.95,1178.04 939.95,1195.04 965.96,1206.66 " fill="none" id="r-backto-i" style="stroke:#181818;stroke-width:1.0;"/><polygon fill="none" points="689.24,750.7,690.6707,757.7678,697.745,759.1655,696.3143,752.0977,689.24,750.7" style="stroke:#181818;stroke-width:1.0;"/><text fill="#000000" font-family="sans-serif" font-size="13" lengthAdjust="spacing" textLength="97" x="756" y="961.5669">recycling saves</text><text fill="#000000" font-family="sans-serif" font-size="13" lengthAdjust="spacing" textLength="24" x="696.8942" y="768.3695">0..1</text><text fill="#000000" font-family="sans-serif" font-size="13" lengthAdjust="spacing" textLength="7" x="958.96" y="1218.7269">*</text></g><!--MD5=[d4e3388b5270ad0a18b482f8ef29c29d]
reverse link i to mt--><g id="link_i_mt"><path codeLine="159" d="M1066.43,1226.24 C1147.19,1223.13 1233.69,1193.1 1288.95,1170.1 " fill="none" id="i-backto-mt" style="stroke:#181818;stroke-width:1.0;"/><polygon fill="none" points="1053,1226.5,1059.0779,1230.3806,1064.9977,1226.2627,1058.9197,1222.3821,1053,1226.5" style="stroke:#181818;stroke-width:1.0;"/><text fill="#000000" font-family="sans-serif" font-size="13" lengthAdjust="spacing" textLength="7" x="1059.9156" y="1241.9311">*</text><text fill="#000000" font-family="sans-serif" font-size="13" lengthAdjust="spacing" textLength="7" x="1281.95" y="1182.1669">*</text></g><!--MD5=[6e5240d9dee4f3fc978522837fee0f29]
reverse link g to gcm--><g id="link_g_gcm"><path codeLine="162" d="M99.32,516.59 C115.01,445.78 150.71,337.71 228,283.5 C242.27,273.49 732.24,235.57 930.23,220.62 " fill="none" id="g-backto-gcm" style="stroke:#181818;stroke-width:1.0;"/><polygon fill="#181818" points="96.62,529.36,101.7737,524.3162,99.1001,517.6191,93.9464,522.6628,96.62,529.36" style="stroke:#181818;stroke-width:1.0;"/><text fill="#000000" font-family="sans-serif" font-size="13" lengthAdjust="spacing" textLength="45" x="464.5" y="248.5669">sent to</text><text fill="#000000" font-family="sans-serif" font-size="13" lengthAdjust="spacing" textLength="8" x="89.3401" y="518.4237">1</text><text fill="#000000" font-family="sans-serif" font-size="13" lengthAdjust="spacing" textLength="8" x="922.23" y="232.6869">1</text></g><!--MD5=[65dbf6f7546b1ae9ad215cce5b06be6b]
reverse link u to gcm--><g id="link_u_gcm"><path codeLine="163" d="M702.68,482.71 C711.1,472.28 718.93,461.03 725,449.5 C751.39,399.32 722.78,372.15 755,325.5 C810.98,244.46 839.5,200.5 938,200.5 " fill="none" id="u-backto-gcm" style="stroke:#181818;stroke-width:1.0;"/><polygon fill="none" points="694.11,492.86,701.0374,490.8572,701.853,483.6924,694.9256,485.6952,694.11,492.86" style="stroke:#181818;stroke-width:1.0;"/><text fill="#000000" font-family="sans-serif" font-size="13" lengthAdjust="spacing" textLength="62" x="773.5" y="214.5669">written by</text><text fill="#000000" font-family="sans-serif" font-size="13" lengthAdjust="spacing" textLength="8" x="694.11" y="504.9269">1</text><text fill="#000000" font-family="sans-serif" font-size="13" lengthAdjust="spacing" textLength="8" x="922.4703" y="211.883">1</text></g><!--MD5=[1013178c9ff47805457af71fd132fe2b]
reverse link u to bc--><g id="link_u_bc"><path codeLine="166" d="M706.92,527.13 C722.65,523.63 739.43,519.92 755,516.5 C812.3,503.91 825.73,495.33 884,488.5 C1063.69,467.43 1110.08,480.5 1291,480.5 " fill="none" id="u-backto-bc" style="stroke:#181818;stroke-width:1.0;"/><polygon fill="none" points="694.01,530,700.7333,532.6072,705.7258,527.4038,699.0025,524.7966,694.01,530" style="stroke:#181818;stroke-width:1.0;"/><text fill="#000000" font-family="sans-serif" font-size="13" lengthAdjust="spacing" textLength="62" x="982" y="471.5669">written by</text><text fill="#000000" font-family="sans-serif" font-size="13" lengthAdjust="spacing" textLength="8" x="694.01" y="527.0669">1</text><text fill="#000000" font-family="sans-serif" font-size="13" lengthAdjust="spacing" textLength="8" x="1275.9469" y="491.7372">1</text></g><!--MD5=[06ebf2b6c59147c52561075446b1311f]
reverse link u to bp--><g id="link_u_bp"><path codeLine="167" d="M707.23,541.5 C771.58,541.5 873.11,541.5 961,541.5 " fill="none" id="u-backto-bp" style="stroke:#181818;stroke-width:1.0;"/><polygon fill="none" points="694.08,541.5,700.08,545.5,706.08,541.5,700.08,537.5,694.08,541.5" style="stroke:#181818;stroke-width:1.0;"/><text fill="#000000" font-family="sans-serif" font-size="13" lengthAdjust="spacing" textLength="62" x="773.5" y="537.5669">written by</text><text fill="#000000" font-family="sans-serif" font-size="13" lengthAdjust="spacing" textLength="8" x="694.08" y="553.5669">1</text><text fill="#000000" font-family="sans-serif" font-size="13" lengthAdjust="spacing" textLength="8" x="945.475" y="551.5077">1</text></g><!--MD5=[eb5d7c9195a6ada222b51139d6fa6313]
reverse link bp to bc--><g id="link_bp_bc"><path codeLine="168" d="M1079.03,605.16 C1154.26,601.3 1231.75,565.15 1283.93,535.2 " fill="none" id="bp-backto-bc" style="stroke:#181818;stroke-width:1.0;"/><polygon fill="#181818" points="1066,605.5,1072.0992,609.3471,1077.9962,605.1968,1071.897,601.3497,1066,605.5" style="stroke:#181818;stroke-width:1.0;"/><text fill="#000000" font-family="sans-serif" font-size="13" lengthAdjust="spacing" textLength="62" x="1182" y="548.5669">discusses</text><text fill="#000000" font-family="sans-serif" font-size="13" lengthAdjust="spacing" textLength="8" x="1072.5906" y="623.195">1</text><text fill="#000000" font-family="sans-serif" font-size="13" lengthAdjust="spacing" textLength="7" x="1276.93" y="547.2669">*</text></g><!--MD5=[12440bd15530bac88a775af0e4a32e60]
reverse link g to u--><g id="link_g_u"><path codeLine="171" d="M155.32,584.5 C252.67,584.5 438.41,584.5 596.5,584.5 " fill="none" id="g-backto-u" style="stroke:#181818;stroke-width:1.0;"/><polygon fill="none" points="142.18,584.5,148.18,588.5,154.18,584.5,148.18,580.5,142.18,584.5" style="stroke:#181818;stroke-width:1.0;"/><text fill="#000000" font-family="sans-serif" font-size="13" lengthAdjust="spacing" textLength="56" x="294" y="580.5669">supports</text><text fill="#000000" font-family="sans-serif" font-size="13" lengthAdjust="spacing" textLength="8" x="150.1323" y="597.5983">1</text><text fill="#000000" font-family="sans-serif" font-size="13" lengthAdjust="spacing" textLength="23" x="565.9078" y="603.2694">1..*</text></g><!--MD5=[1106d684dea5c77897e4ad50744b220b]
reverse link g to gcee--><g id="link_g_gcee"><path codeLine="173" d="M94.3,652.54 C105.79,733.46 138.01,865.6 228,929.5 C348.27,1014.91 743.48,962.5 891,962.5 " fill="none" id="g-backto-gcee" style="stroke:#181818;stroke-width:1.0;"/><polygon fill="#181818" points="92.57,639.52,89.3962,645.9951,94.1525,651.4152,97.3263,644.9401,92.57,639.52" style="stroke:#181818;stroke-width:1.0;"/><text fill="#000000" font-family="sans-serif" font-size="13" lengthAdjust="spacing" textLength="49" x="462.5" y="972.5669">triggers</text><text fill="#000000" font-family="sans-serif" font-size="13" lengthAdjust="spacing" textLength="8" x="84.7613" y="659.2279">1</text><text fill="#000000" font-family="sans-serif" font-size="13" lengthAdjust="spacing" textLength="7" x="877.1367" y="973.7289">*</text></g><!--MD5=[1eab05129ac568aeb89b3f85cb04944a]
reverse link c to gcee--><g id="link_c_gcee"><path codeLine="174" d="M718.77,881.64 C760.79,894.33 812.66,913.65 854,940.5 C873.77,953.34 867.43,978.5 891,978.5 " fill="none" id="c-backto-gcee" style="stroke:#181818;stroke-width:1.0;"/><polygon fill="#181818" points="706.06,877.92,710.692,883.4467,717.5751,881.2967,712.9431,875.77,706.06,877.92" style="stroke:#181818;stroke-width:1.0;"/><text fill="#000000" font-family="sans-serif" font-size="13" lengthAdjust="spacing" textLength="81" x="764" y="890.5669">described by</text><text fill="#000000" font-family="sans-serif" font-size="13" lengthAdjust="spacing" textLength="8" x="706.06" y="889.9869">1</text><text fill="#000000" font-family="sans-serif" font-size="13" lengthAdjust="spacing" textLength="7" x="877.1367" y="990.6039">*</text></g><!--MD5=[876ec426711414a36aa77f92bf35e1e4]
reverse link cb to c--><g id="link_cb_c"><path codeLine="177" d="M400.33,830.97 C452.23,839.45 522.23,848.5 584.5,848.5 " fill="none" id="cb-backto-c" style="stroke:#181818;stroke-width:1.0;"/><polygon fill="#181818" points="387.21,828.78,392.4681,833.7148,399.0457,830.7592,393.7876,825.8244,387.21,828.78" style="stroke:#181818;stroke-width:1.0;"/><text fill="#000000" font-family="sans-serif" font-size="13" lengthAdjust="spacing" textLength="59" x="457.5" y="833.5669">based on</text><text fill="#000000" font-family="sans-serif" font-size="13" lengthAdjust="spacing" textLength="8" x="395.2124" y="843.1263">1</text><text fill="#000000" font-family="sans-serif" font-size="13" lengthAdjust="spacing" textLength="7" x="570.1266" y="859.6923">*</text></g><!--MD5=[00308d07b6a5721fb0cf5861877e6652]
reverse link List to AbstractList--><g id="link_List_AbstractList"><path codeLine="9" d="M369.77,407.5 C427.19,407.5 524.45,407.5 585.43,407.5 " fill="none" id="List-backto-AbstractList" style="stroke:#181818;stroke-width:1.0;"/><polygon fill="none" points="369.52,414.5,349.52,407.5,369.52,400.5,369.52,414.5" style="stroke:#181818;stroke-width:1.0;"/></g><!--MD5=[1822909749df1453bdd84de7a60a3406]
reverse link Collection to AbstractCollection--><g id="link_Collection_AbstractCollection"><path codeLine="10" d="M392.31,324.5 C442.65,324.5 510.81,324.5 562.96,324.5 " fill="none" id="Collection-backto-AbstractCollection" style="stroke:#181818;stroke-width:1.0;"/><polygon fill="none" points="392.26,331.5,372.26,324.5,392.26,317.5,392.26,331.5" style="stroke:#181818;stroke-width:1.0;"/></g><!--MD5=[0159284274f96a472eb2618ad803aaca]
reverse link Collection to List--><g id="link_Collection_List"><path codeLine="12" d="M322,368.95 C322,373.69 322,378.44 322,383.18 " fill="none" id="Collection-backto-List" style="stroke:#181818;stroke-width:1.0;"/><polygon fill="none" points="315,368.8,322,348.8,329,368.8,315,368.8" style="stroke:#181818;stroke-width:1.0;"/></g><!--MD5=[7a3a52e8f65ef1a8d8d29530ea5cd870]
reverse link AbstractCollection to AbstractList--><g id="link_AbstractCollection_AbstractList"><path codeLine="13" d="M641.5,368.95 C641.5,373.69 641.5,378.44 641.5,383.18 " fill="none" id="AbstractCollection-backto-AbstractList" style="stroke:#181818;stroke-width:1.0;"/><polygon fill="none" points="634.5,368.8,641.5,348.8,648.5,368.8,634.5,368.8" style="stroke:#181818;stroke-width:1.0;"/></g><!--MD5=[f7df8054f981df88b0c8ddb96452e2af]
reverse link AbstractList to gcm--><g id="link_AbstractList_gcm"><path codeLine="14" d="M715.09,374.77 C718.58,372.18 721.92,369.42 725,366.5 C744.65,347.88 734.5,331.18 755,313.5 C769.05,301.38 860.58,267.55 930.44,242.8 " fill="none" id="AbstractList-backto-gcm" style="stroke:#181818;stroke-width:1.0;"/><polygon fill="none" points="718.49,380.91,697.86,385.74,710.97,369.1,718.49,380.91" style="stroke:#181818;stroke-width:1.0;"/></g><!--MD5=[274c2dd02cd2c7447457ee98d6d85488]
link cv to ArrayList--></g></svg>