<?xml version="1.0" encoding="UTF-8" standalone="no"?><svg xmlns="http://www.w3.org/2000/svg" xmlns:xlink="http://www.w3.org/1999/xlink" contentStyleType="text/css" height="1034px" preserveAspectRatio="none" style="width:1372px;height:1034px;background:#FFFFFF;" version="1.1" viewBox="0 0 1372 1034" width="1372px" zoomAndPan="magnify"><defs/><g><g id="elem_u"><rect fill="#F1F1F1" height="142.375" style="stroke:#181818;stroke-width:0.5;" width="89" x="266" y="576.2656"/><text fill="#000000" font-family="sans-serif" font-size="14" lengthAdjust="spacing" textLength="31" x="295" y="591.2607">user</text><line style="stroke:#181818;stroke-width:0.5;" x1="267" x2="354" y1="596.5625" y2="596.5625"/><text fill="#000000" font-family="sans-serif" font-size="14" lengthAdjust="spacing" textLength="39" x="272" y="613.5576">name</text><text fill="#000000" font-family="sans-serif" font-size="14" lengthAdjust="spacing" textLength="77" x="272" y="629.8545">description</text><text fill="#000000" font-family="sans-serif" font-size="14" lengthAdjust="spacing" textLength="54" x="272" y="646.1514">location</text><text fill="#000000" font-family="sans-serif" font-size="14" lengthAdjust="spacing" textLength="25" x="272" y="662.4482">exp</text><text fill="#000000" font-family="sans-serif" font-size="14" lengthAdjust="spacing" textLength="68" x="272" y="678.7451">guildRank</text><text fill="#000000" font-family="sans-serif" font-size="14" font-style="italic" lengthAdjust="spacing" textLength="33" x="272" y="695.042">guild</text><text fill="#000000" font-family="sans-serif" font-size="14" font-style="italic" lengthAdjust="spacing" textLength="56" x="272" y="711.3389">account</text></g><g id="elem_acc"><rect fill="#F1F1F1" height="44.5938" style="stroke:#181818;stroke-width:0.5;" width="78" x="536.5" y="445.7656"/><text fill="#000000" font-family="sans-serif" font-size="14" lengthAdjust="spacing" textLength="56" x="547.5" y="460.7607">account</text><line style="stroke:#181818;stroke-width:0.5;" x1="537.5" x2="613.5" y1="466.0625" y2="466.0625"/><text fill="#000000" font-family="sans-serif" font-size="14" lengthAdjust="spacing" textLength="66" x="542.5" y="483.0576">supportId</text></g><g id="elem_accsm"><rect fill="#F1F1F1" height="60.8906" style="stroke:#181818;stroke-width:0.5;" width="167" x="534" y="616.7656"/><text fill="#000000" font-family="sans-serif" font-size="14" lengthAdjust="spacing" textLength="153" x="541" y="631.7607">self managed account</text><line style="stroke:#181818;stroke-width:0.5;" x1="535" x2="700" y1="637.0625" y2="637.0625"/><text fill="#000000" font-family="sans-serif" font-size="14" lengthAdjust="spacing" textLength="36" x="540" y="654.0576">email</text><text fill="#000000" font-family="sans-serif" font-size="14" lengthAdjust="spacing" textLength="67" x="540" y="670.3545">password</text></g><g id="elem_accf"><rect fill="#F1F1F1" height="44.5938" style="stroke:#181818;stroke-width:0.5;" width="142" x="373.5" y="624.7656"/><text fill="#000000" font-family="sans-serif" font-size="14" lengthAdjust="spacing" textLength="128" x="380.5" y="639.7607">federated Account</text><line style="stroke:#181818;stroke-width:0.5;" x1="374.5" x2="514.5" y1="645.0625" y2="645.0625"/><text fill="#000000" font-family="sans-serif" font-size="14" lengthAdjust="spacing" textLength="60" x="379.5" y="662.0576">foreignId</text></g><g id="elem_us"><rect fill="#F1F1F1" height="77.1875" style="stroke:#181818;stroke-width:0.5;" width="103" x="275" y="787.7656"/><text fill="#000000" font-family="sans-serif" font-size="14" lengthAdjust="spacing" textLength="89" x="282" y="802.7607">user session</text><line style="stroke:#181818;stroke-width:0.5;" x1="276" x2="377" y1="808.0625" y2="808.0625"/><text fill="#000000" font-family="sans-serif" font-size="14" font-style="italic" lengthAdjust="spacing" textLength="30" x="281" y="825.0576">user</text><text fill="#000000" font-family="sans-serif" font-size="14" lengthAdjust="spacing" textLength="40" x="281" y="841.3545">token</text><text fill="#000000" font-family="sans-serif" font-size="14" lengthAdjust="spacing" textLength="50" x="281" y="857.6514">expires</text></g><g id="elem_i"><rect fill="#F1F1F1" height="93.4844" style="stroke:#181818;stroke-width:0.5;" width="78" x="945.5" y="779.7656"/><text fill="#000000" font-family="sans-serif" font-size="14" lengthAdjust="spacing" textLength="30" x="969.5" y="794.7607">item</text><line style="stroke:#181818;stroke-width:0.5;" x1="946.5" x2="1022.5" y1="800.0625" y2="800.0625"/><text fill="#000000" font-family="sans-serif" font-size="14" lengthAdjust="spacing" textLength="26" x="951.5" y="817.0576">ean</text><text fill="#000000" font-family="sans-serif" font-size="14" font-style="italic" lengthAdjust="spacing" textLength="61" x="951.5" y="833.3545">materials</text><text fill="#000000" font-family="sans-serif" font-size="14" font-style="italic" lengthAdjust="spacing" textLength="66" x="951.5" y="849.6514">reduction</text><text fill="#000000" font-family="sans-serif" font-size="14" lengthAdjust="spacing" textLength="49" x="951.5" y="865.9482">verified</text></g><g id="elem_mt"><rect fill="#F1F1F1" height="60.8906" style="stroke:#181818;stroke-width:0.5;" width="102" x="1013.5" y="950.2656"/><text fill="#000000" font-family="sans-serif" font-size="14" lengthAdjust="spacing" textLength="88" x="1020.5" y="965.2607">materialType</text><line style="stroke:#181818;stroke-width:0.5;" x1="1014.5" x2="1114.5" y1="970.5625" y2="970.5625"/><text fill="#000000" font-family="sans-serif" font-size="14" lengthAdjust="spacing" textLength="39" x="1019.5" y="987.5576">name</text><text fill="#000000" font-family="sans-serif" font-size="14" font-style="italic" lengthAdjust="spacing" textLength="88" x="1019.5" y="1003.8545">recyclingInfo</text></g><g id="elem_ri"><rect fill="#F1F1F1" height="60.8906" style="stroke:#181818;stroke-width:0.5;" width="100" x="1041.5" y="795.7656"/><text fill="#000000" font-family="sans-serif" font-size="14" lengthAdjust="spacing" textLength="86" x="1048.5" y="810.7607">recyclingInfo</text><line style="stroke:#181818;stroke-width:0.5;" x1="1042.5" x2="1140.5" y1="816.0625" y2="816.0625"/><text fill="#000000" font-family="sans-serif" font-size="14" lengthAdjust="spacing" textLength="44" x="1047.5" y="833.0576">region</text><text fill="#000000" font-family="sans-serif" font-size="14" lengthAdjust="spacing" textLength="71" x="1047.5" y="849.3545">whatToDo</text></g><g id="elem_bp"><rect fill="#F1F1F1" height="109.7813" style="stroke:#181818;stroke-width:0.5;" width="103" x="396" y="771.2656"/><text fill="#000000" font-family="sans-serif" font-size="14" lengthAdjust="spacing" textLength="65" x="415" y="786.2607">blog post</text><line style="stroke:#181818;stroke-width:0.5;" x1="397" x2="498" y1="791.5625" y2="791.5625"/><text fill="#000000" font-family="sans-serif" font-size="14" font-style="italic" lengthAdjust="spacing" textLength="45" x="402" y="808.5576">author</text><text fill="#000000" font-family="sans-serif" font-size="14" lengthAdjust="spacing" textLength="59" x="402" y="824.8545">blogTitle</text><text fill="#000000" font-family="sans-serif" font-size="14" lengthAdjust="spacing" textLength="31" x="402" y="841.1514">date</text><text fill="#000000" font-family="sans-serif" font-size="14" lengthAdjust="spacing" textLength="91" x="402" y="857.4482">updatedDate</text><text fill="#000000" font-family="sans-serif" font-size="14" font-style="italic" lengthAdjust="spacing" textLength="73" x="402" y="873.7451">comments</text></g><g id="elem_bc"><rect fill="#F1F1F1" height="93.4844" style="stroke:#181818;stroke-width:0.5;" width="112" x="200.5" y="934.2656"/><text fill="#000000" font-family="sans-serif" font-size="14" lengthAdjust="spacing" textLength="98" x="207.5" y="949.2607">blogComment</text><line style="stroke:#181818;stroke-width:0.5;" x1="201.5" x2="311.5" y1="954.5625" y2="954.5625"/><text fill="#000000" font-family="sans-serif" font-size="14" font-style="italic" lengthAdjust="spacing" textLength="45" x="206.5" y="971.5576">author</text><text fill="#000000" font-family="sans-serif" font-size="14" font-style="italic" lengthAdjust="spacing" textLength="30" x="206.5" y="987.8545">blog</text><text fill="#000000" font-family="sans-serif" font-size="14" lengthAdjust="spacing" textLength="31" x="206.5" y="1004.1514">date</text><text fill="#000000" font-family="sans-serif" font-size="14" lengthAdjust="spacing" textLength="54" x="206.5" y="1020.4482">content</text></g><g id="elem_g"><rect fill="#F1F1F1" height="109.7813" style="stroke:#181818;stroke-width:0.5;" width="110" x="145.5" y="250.2656"/><text fill="#000000" font-family="sans-serif" font-size="14" lengthAdjust="spacing" textLength="33" x="184" y="265.2607">guild</text><line style="stroke:#181818;stroke-width:0.5;" x1="146.5" x2="254.5" y1="270.5625" y2="270.5625"/><text fill="#000000" font-family="sans-serif" font-size="14" lengthAdjust="spacing" textLength="39" x="151.5" y="287.5576">name</text><text fill="#000000" font-family="sans-serif" font-size="14" lengthAdjust="spacing" textLength="77" x="151.5" y="303.8545">description</text><text fill="#000000" font-family="sans-serif" font-size="14" lengthAdjust="spacing" textLength="25" x="151.5" y="320.1514">exp</text><text fill="#000000" font-family="sans-serif" font-size="14" font-style="italic" lengthAdjust="spacing" textLength="98" x="151.5" y="336.4482">chatMessages</text><text fill="#000000" font-family="sans-serif" font-size="14" font-style="italic" lengthAdjust="spacing" textLength="65" x="151.5" y="352.7451">members</text></g><g id="elem_gcm"><rect fill="#F1F1F1" height="93.4844" style="stroke:#181818;stroke-width:0.5;" width="149" x="7" y="779.7656"/><text fill="#000000" font-family="sans-serif" font-size="14" lengthAdjust="spacing" textLength="135" x="14" y="794.7607">guild chat message</text><line style="stroke:#181818;stroke-width:0.5;" x1="8" x2="155" y1="800.0625" y2="800.0625"/><text fill="#000000" font-family="sans-serif" font-size="14" font-style="italic" lengthAdjust="spacing" textLength="45" x="13" y="817.0576">author</text><text fill="#000000" font-family="sans-serif" font-size="14" font-style="italic" lengthAdjust="spacing" textLength="33" x="13" y="833.3545">guild</text><text fill="#000000" font-family="sans-serif" font-size="14" lengthAdjust="spacing" textLength="31" x="13" y="849.6514">date</text><text fill="#000000" font-family="sans-serif" font-size="14" lengthAdjust="spacing" textLength="64" x="13" y="865.9482">message</text></g><g id="elem_cb"><rect fill="#F1F1F1" height="191.2656" style="stroke:#181818;stroke-width:0.5;" width="130" x="527.5" y="6.2656"/><text fill="#000000" font-family="sans-serif" font-size="14" lengthAdjust="spacing" textLength="105" x="540" y="21.2607">challenge base</text><line style="stroke:#181818;stroke-width:0.5;" x1="528.5" x2="656.5" y1="26.5625" y2="26.5625"/><text fill="#000000" font-family="sans-serif" font-size="14" lengthAdjust="spacing" textLength="39" x="533.5" y="43.5576">name</text><text fill="#000000" font-family="sans-serif" font-size="14" lengthAdjust="spacing" textLength="72" x="533.5" y="59.8545">desciption</text><text fill="#000000" font-family="sans-serif" font-size="14" lengthAdjust="spacing" textLength="93" x="533.5" y="76.1514">daily-available</text><text fill="#000000" font-family="sans-serif" font-size="14" lengthAdjust="spacing" textLength="88" x="533.5" y="92.4482">daily-amount</text><text fill="#000000" font-family="sans-serif" font-size="14" lengthAdjust="spacing" textLength="118" x="533.5" y="108.7451">monthly-available</text><text fill="#000000" font-family="sans-serif" font-size="14" lengthAdjust="spacing" textLength="113" x="533.5" y="125.042">monthly-amount</text><text fill="#000000" font-family="sans-serif" font-size="14" lengthAdjust="spacing" textLength="105" x="533.5" y="141.3389">guilde-available</text><text fill="#000000" font-family="sans-serif" font-size="14" lengthAdjust="spacing" textLength="91" x="533.5" y="157.6357">guild-amount</text><text fill="#000000" font-family="sans-serif" font-size="14" lengthAdjust="spacing" textLength="104" x="533.5" y="173.9326">guild-multiplyer</text><text fill="#000000" font-family="sans-serif" font-size="14" lengthAdjust="spacing" textLength="25" x="533.5" y="190.2295">exp</text></g><g id="elem_c"><rect fill="#F1F1F1" height="93.4844" style="stroke:#181818;stroke-width:0.5;" width="113" x="536" y="258.7656"/><text fill="#000000" font-family="sans-serif" font-size="14" lengthAdjust="spacing" textLength="67" x="559" y="273.7607">challenge</text><line style="stroke:#181818;stroke-width:0.5;" x1="537" x2="648" y1="279.0625" y2="279.0625"/><text fill="#000000" font-family="sans-serif" font-size="14" font-style="italic" lengthAdjust="spacing" textLength="101" x="542" y="296.0576">challengeBase</text><text fill="#000000" font-family="sans-serif" font-size="14" lengthAdjust="spacing" textLength="64" x="542" y="312.3545">startDate</text><text fill="#000000" font-family="sans-serif" font-size="14" lengthAdjust="spacing" textLength="60" x="542" y="328.6514">endDate</text><text fill="#000000" font-family="sans-serif" font-size="14" lengthAdjust="spacing" textLength="30" x="542" y="344.9482">type</text></g><g id="elem_ucee"><rect fill="#F1F1F1" height="109.7813" style="stroke:#181818;stroke-width:0.5;" width="240" x="517.5" y="771.2656"/><text fill="#000000" font-family="sans-serif" font-size="14" lengthAdjust="spacing" textLength="226" x="524.5" y="786.2607">user challenge experience event</text><line style="stroke:#181818;stroke-width:0.5;" x1="518.5" x2="756.5" y1="791.5625" y2="791.5625"/><text fill="#000000" font-family="sans-serif" font-size="14" font-style="italic" lengthAdjust="spacing" textLength="30" x="523.5" y="808.5576">user</text><text fill="#000000" font-family="sans-serif" font-size="14" font-style="italic" lengthAdjust="spacing" textLength="67" x="523.5" y="824.8545">challenge</text><text fill="#000000" font-family="sans-serif" font-size="14" lengthAdjust="spacing" textLength="54" x="523.5" y="841.1514">counter</text><text fill="#000000" font-family="sans-serif" font-size="14" lengthAdjust="spacing" textLength="43" x="523.5" y="857.4482">status</text><text fill="#000000" font-family="sans-serif" font-size="14" lengthAdjust="spacing" textLength="31" x="523.5" y="873.7451">date</text></g><g id="elem_gcee"><rect fill="#F1F1F1" height="109.7813" style="stroke:#181818;stroke-width:0.5;" width="242" x="276.5" y="413.2656"/><text fill="#000000" font-family="sans-serif" font-size="14" lengthAdjust="spacing" textLength="228" x="283.5" y="428.2607">guild challenge experience event</text><line style="stroke:#181818;stroke-width:0.5;" x1="277.5" x2="517.5" y1="433.5625" y2="433.5625"/><text fill="#000000" font-family="sans-serif" font-size="14" font-style="italic" lengthAdjust="spacing" textLength="33" x="282.5" y="450.5576">guild</text><text fill="#000000" font-family="sans-serif" font-size="14" font-style="italic" lengthAdjust="spacing" textLength="67" x="282.5" y="466.8545">challenge</text><text fill="#000000" font-family="sans-serif" font-size="14" lengthAdjust="spacing" textLength="54" x="282.5" y="483.1514">counter</text><text fill="#000000" font-family="sans-serif" font-size="14" lengthAdjust="spacing" textLength="43" x="282.5" y="499.4482">status</text><text fill="#000000" font-family="sans-serif" font-size="14" lengthAdjust="spacing" textLength="31" x="282.5" y="515.7451">date</text></g><g id="elem_r"><rect fill="#F1F1F1" height="126.0781" style="stroke:#181818;stroke-width:0.5;" width="95" x="856" y="584.2656"/><text fill="#000000" font-family="sans-serif" font-size="14" lengthAdjust="spacing" textLength="66" x="870.5" y="599.2607">reduction</text><line style="stroke:#181818;stroke-width:0.5;" x1="857" x2="950" y1="604.5625" y2="604.5625"/><text fill="#000000" font-family="sans-serif" font-size="14" lengthAdjust="spacing" textLength="39" x="862" y="621.5576">name</text><text fill="#000000" font-family="sans-serif" font-size="14" lengthAdjust="spacing" textLength="77" x="862" y="637.8545">description</text><text fill="#000000" font-family="sans-serif" font-size="14" lengthAdjust="spacing" textLength="26" x="862" y="654.1514">co2</text><text fill="#000000" font-family="sans-serif" font-size="14" lengthAdjust="spacing" textLength="38" x="862" y="670.4482">water</text><text fill="#000000" font-family="sans-serif" font-size="14" lengthAdjust="spacing" textLength="83" x="862" y="686.7451">trashWeight</text><text fill="#000000" font-family="sans-serif" font-size="14" lengthAdjust="spacing" textLength="25" x="862" y="703.042">exp</text></g><g id="elem_ree"><rect fill="#F1F1F1" height="77.1875" style="stroke:#181818;stroke-width:0.5;" width="152" x="775.5" y="787.7656"/><text fill="#000000" font-family="sans-serif" font-size="14" lengthAdjust="spacing" textLength="138" x="782.5" y="802.7607">reduction exp event</text><line style="stroke:#181818;stroke-width:0.5;" x1="776.5" x2="926.5" y1="808.0625" y2="808.0625"/><text fill="#000000" font-family="sans-serif" font-size="14" font-style="italic" lengthAdjust="spacing" textLength="30" x="781.5" y="825.0576">user</text><text fill="#000000" font-family="sans-serif" font-size="14" lengthAdjust="spacing" textLength="31" x="781.5" y="841.3545">date</text><text fill="#000000" font-family="sans-serif" font-size="14" font-style="italic" lengthAdjust="spacing" textLength="66" x="781.5" y="857.6514">reduction</text></g><g id="elem_cv"><rect fill="#F1F1F1" height="60.8906" style="stroke:#181818;stroke-width:0.5;" width="143" x="677" y="71.2656"/><text fill="#000000" font-family="sans-serif" font-size="14" lengthAdjust="spacing" textLength="129" x="684" y="86.2607">comparison values</text><line style="stroke:#181818;stroke-width:0.5;" x1="678" x2="819" y1="91.5625" y2="91.5625"/><text fill="#000000" font-family="sans-serif" font-size="14" lengthAdjust="spacing" textLength="30" x="683" y="108.5576">type</text><text fill="#000000" font-family="sans-serif" font-size="14" lengthAdjust="spacing" textLength="36" x="683" y="124.8545">value</text></g><!--MD5=[b4fa10df80476353258f72a232547d63]
class AbstractList--><g id="elem_AbstractList"><rect codeLine="6" fill="#F1F1F1" height="48" id="AbstractList" rx="2.5" ry="2.5" style="stroke:#181818;stroke-width:0.5;" width="112" x="1229.5" y="281.2656"/><ellipse cx="1244.5" cy="297.2656" fill="#A9DCDF" rx="11" ry="11" style="stroke:#181818;stroke-width:1.0;"/><path d="M1244.6094,292.6094 L1243.4531,297.6875 L1245.7813,297.6875 L1244.6094,292.6094 Z M1243.125,290.375 L1246.1094,290.375 L1249.4688,302.7656 L1247.0156,302.7656 L1246.25,299.7031 L1242.9688,299.7031 L1242.2188,302.7656 L1239.7813,302.7656 L1243.125,290.375 Z " fill="#000000"/><text fill="#000000" font-family="sans-serif" font-size="14" font-style="italic" lengthAdjust="spacing" textLength="80" x="1258.5" y="302.1123">AbstractList</text><line style="stroke:#181818;stroke-width:0.5;" x1="1230.5" x2="1340.5" y1="313.2656" y2="313.2656"/><line style="stroke:#181818;stroke-width:0.5;" x1="1230.5" x2="1340.5" y1="321.2656" y2="321.2656"/></g><!--MD5=[8e34b16d8d8f96f4a11290cd523ed859]
class AbstractCollection--><g id="elem_AbstractCollection"><rect codeLine="7" fill="#F1F1F1" height="48" id="AbstractCollection" rx="2.5" ry="2.5" style="stroke:#181818;stroke-width:0.5;" width="157" x="1054" y="281.2656"/><ellipse cx="1069" cy="297.2656" fill="#A9DCDF" rx="11" ry="11" style="stroke:#181818;stroke-width:1.0;"/><path d="M1069.1094,292.6094 L1067.9531,297.6875 L1070.2813,297.6875 L1069.1094,292.6094 Z M1067.625,290.375 L1070.6094,290.375 L1073.9688,302.7656 L1071.5156,302.7656 L1070.75,299.7031 L1067.4688,299.7031 L1066.7188,302.7656 L1064.2813,302.7656 L1067.625,290.375 Z " fill="#000000"/><text fill="#000000" font-family="sans-serif" font-size="14" font-style="italic" lengthAdjust="spacing" textLength="125" x="1083" y="302.1123">AbstractCollection</text><line style="stroke:#181818;stroke-width:0.5;" x1="1055" x2="1210" y1="313.2656" y2="313.2656"/><line style="stroke:#181818;stroke-width:0.5;" x1="1055" x2="1210" y1="321.2656" y2="321.2656"/></g><!--MD5=[3d4177ac58b4411586d067f34e84928f]
class List--><g id="elem_List"><rect codeLine="8" fill="#F1F1F1" height="48" id="List" rx="2.5" ry="2.5" style="stroke:#181818;stroke-width:0.5;" width="55" x="1240" y="77.7656"/><ellipse cx="1255" cy="93.7656" fill="#B4A7E5" rx="11" ry="11" style="stroke:#181818;stroke-width:1.0;"/><path d="M1250.9219,89.5313 L1250.9219,87.375 L1258.3125,87.375 L1258.3125,89.5313 L1255.8438,89.5313 L1255.8438,97.6094 L1258.3125,97.6094 L1258.3125,99.7656 L1250.9219,99.7656 L1250.9219,97.6094 L1253.3906,97.6094 L1253.3906,89.5313 L1250.9219,89.5313 Z " fill="#000000"/><text fill="#000000" font-family="sans-serif" font-size="14" font-style="italic" lengthAdjust="spacing" textLength="23" x="1269" y="98.6123">List</text><line style="stroke:#181818;stroke-width:0.5;" x1="1241" x2="1294" y1="109.7656" y2="109.7656"/><line style="stroke:#181818;stroke-width:0.5;" x1="1241" x2="1294" y1="117.7656" y2="117.7656"/></g><!--MD5=[c160724f8e3bb89ca8141a12554ac2e3]
class Collection--><g id="elem_Collection"><rect codeLine="9" fill="#F1F1F1" height="48" id="Collection" rx="2.5" ry="2.5" style="stroke:#181818;stroke-width:0.5;" width="100" x="1117.5" y="77.7656"/><ellipse cx="1132.5" cy="93.7656" fill="#B4A7E5" rx="11" ry="11" style="stroke:#181818;stroke-width:1.0;"/><path d="M1128.4219,89.5313 L1128.4219,87.375 L1135.8125,87.375 L1135.8125,89.5313 L1133.3438,89.5313 L1133.3438,97.6094 L1135.8125,97.6094 L1135.8125,99.7656 L1128.4219,99.7656 L1128.4219,97.6094 L1130.8906,97.6094 L1130.8906,89.5313 L1128.4219,89.5313 Z " fill="#000000"/><text fill="#000000" font-family="sans-serif" font-size="14" font-style="italic" lengthAdjust="spacing" textLength="68" x="1146.5" y="98.6123">Collection</text><line style="stroke:#181818;stroke-width:0.5;" x1="1118.5" x2="1216.5" y1="109.7656" y2="109.7656"/><line style="stroke:#181818;stroke-width:0.5;" x1="1118.5" x2="1216.5" y1="117.7656" y2="117.7656"/></g><!--MD5=[ab8871ed637f40707b866ba6597734bc]
class ArrayList--><g id="elem_ArrayList"><rect codeLine="18" fill="#F1F1F1" height="80.5938" id="ArrayList" rx="2.5" ry="2.5" style="stroke:#181818;stroke-width:0.5;" width="160" x="1205.5" y="427.7656"/><ellipse cx="1252.75" cy="443.7656" fill="#ADD1B2" rx="11" ry="11" style="stroke:#181818;stroke-width:1.0;"/><path d="M1255.7188,449.4063 Q1255.1406,449.7031 1254.5,449.8438 Q1253.8594,450 1253.1563,450 Q1250.6563,450 1249.3281,448.3594 Q1248.0156,446.7031 1248.0156,443.5781 Q1248.0156,440.4531 1249.3281,438.7969 Q1250.6563,437.1406 1253.1563,437.1406 Q1253.8594,437.1406 1254.5,437.2969 Q1255.1563,437.4531 1255.7188,437.75 L1255.7188,440.4688 Q1255.0938,439.8906 1254.5,439.625 Q1253.9063,439.3438 1253.2813,439.3438 Q1251.9375,439.3438 1251.25,440.4219 Q1250.5625,441.4844 1250.5625,443.5781 Q1250.5625,445.6719 1251.25,446.75 Q1251.9375,447.8125 1253.2813,447.8125 Q1253.9063,447.8125 1254.5,447.5469 Q1255.0938,447.2656 1255.7188,446.6875 L1255.7188,449.4063 Z " fill="#000000"/><text fill="#000000" font-family="sans-serif" font-size="14" lengthAdjust="spacing" textLength="57" x="1273.25" y="448.6123">ArrayList</text><line style="stroke:#181818;stroke-width:0.5;" x1="1206.5" x2="1364.5" y1="459.7656" y2="459.7656"/><text fill="#000000" font-family="sans-serif" font-size="14" lengthAdjust="spacing" textLength="148" x="1211.5" y="476.7607">Object[] elementData</text><line style="stroke:#181818;stroke-width:0.5;" x1="1206.5" x2="1364.5" y1="484.0625" y2="484.0625"/><text fill="#000000" font-family="sans-serif" font-size="14" lengthAdjust="spacing" textLength="38" x="1211.5" y="501.0576">size()</text></g><!--MD5=[15b68e006199004da79ea2a4d117d8e9]
class TimeUnit--><g id="elem_TimeUnit"><rect codeLine="23" fill="#F1F1F1" height="96.8906" id="TimeUnit" rx="2.5" ry="2.5" style="stroke:#181818;stroke-width:0.5;" width="93" x="838" y="53.2656"/><ellipse cx="853" cy="69.2656" fill="#EB937F" rx="11" ry="11" style="stroke:#181818;stroke-width:1.0;"/><path d="M857.1094,75.2656 L849.3906,75.2656 L849.3906,62.875 L857.1094,62.875 L857.1094,65.0313 L851.8438,65.0313 L851.8438,67.7031 L856.6094,67.7031 L856.6094,69.8594 L851.8438,69.8594 L851.8438,73.1094 L857.1094,73.1094 L857.1094,75.2656 Z " fill="#000000"/><text fill="#000000" font-family="sans-serif" font-size="14" lengthAdjust="spacing" textLength="61" x="867" y="74.1123">TimeUnit</text><line style="stroke:#181818;stroke-width:0.5;" x1="839" x2="930" y1="85.2656" y2="85.2656"/><text fill="#000000" font-family="sans-serif" font-size="14" lengthAdjust="spacing" textLength="38" x="844" y="102.2607">DAYS</text><text fill="#000000" font-family="sans-serif" font-size="14" lengthAdjust="spacing" textLength="50" x="844" y="118.5576">HOURS</text><text fill="#000000" font-family="sans-serif" font-size="14" lengthAdjust="spacing" textLength="62" x="844" y="134.8545">MINUTES</text><line style="stroke:#181818;stroke-width:0.5;" x1="839" x2="930" y1="142.1563" y2="142.1563"/></g><!--MD5=[0c8287f799745f7b534bf75518604c1e]
class SuppressWarnings--><g id="elem_SuppressWarnings"><rect codeLine="29" fill="#F1F1F1" height="48" id="SuppressWarnings" rx="2.5" ry="2.5" style="stroke:#181818;stroke-width:0.5;" width="162" x="667.5" y="281.2656"/><ellipse cx="682.5" cy="297.2656" fill="#E3664A" rx="11" ry="11" style="stroke:#181818;stroke-width:1.0;"/><path d="M684.5781,297.7344 Q684.5781,296.7969 684.1563,296.2656 Q683.7344,295.7344 682.9844,295.7344 Q682.25,295.7344 681.8281,296.2656 Q681.4219,296.7969 681.4219,297.7344 Q681.4219,298.6875 681.8281,299.2188 Q682.25,299.75 682.9844,299.75 Q683.7344,299.75 684.1563,299.2188 Q684.5781,298.6875 684.5781,297.7344 Z M686.125,301.1406 L684.5,301.1406 L684.5,300.4688 Q684.1719,300.9063 683.75,301.1094 Q683.3281,301.3125 682.7188,301.3125 Q681.3594,301.3125 680.5313,300.3438 Q679.7031,299.3594 679.7031,297.7344 Q679.7031,296.1406 680.5313,295.1719 Q681.3594,294.1875 682.7188,294.1875 Q683.3125,294.1875 683.7656,294.3906 Q684.2188,294.5938 684.5,294.9844 L684.5,294.6406 Q684.5,293.5156 683.875,292.9063 Q683.25,292.2813 682.1094,292.2813 Q680.3906,292.2813 679.2969,293.8125 Q678.2031,295.3281 678.2031,297.7656 Q678.2031,300.3125 679.4531,301.8125 Q680.7188,303.3125 682.8281,303.3125 Q683.4844,303.3125 684.1094,303.125 Q684.7344,302.9375 685.3125,302.5469 L686.0781,304 Q685.4063,304.4531 684.6094,304.6719 Q683.8125,304.9063 682.9063,304.9063 Q680,304.9063 678.2656,302.9688 Q676.5469,301.0469 676.5469,297.7656 Q676.5469,294.5469 678.0938,292.625 Q679.6563,290.6875 682.2188,290.6875 Q684.0156,290.6875 685.0625,291.7813 Q686.125,292.875 686.125,294.75 L686.125,301.1406 Z " fill="#000000"/><text fill="#000000" font-family="sans-serif" font-size="14" lengthAdjust="spacing" textLength="130" x="696.5" y="302.1123">SuppressWarnings</text><line style="stroke:#181818;stroke-width:0.5;" x1="668.5" x2="828.5" y1="313.2656" y2="313.2656"/><line style="stroke:#181818;stroke-width:0.5;" x1="668.5" x2="828.5" y1="321.2656" y2="321.2656"/></g><!--MD5=[faebc81c07309c527f2fda51bf6b78ab]
class Annotation--><g id="elem_Annotation"><rect codeLine="31" fill="#F1F1F1" height="96.8906" id="Annotation" rx="2.5" ry="2.5" style="stroke:#181818;stroke-width:0.5;" width="188" x="847.5" y="256.7656"/><ellipse cx="899.75" cy="272.7656" fill="#E3664A" rx="11" ry="11" style="stroke:#181818;stroke-width:1.0;"/><path d="M901.8281,273.2344 Q901.8281,272.2969 901.4063,271.7656 Q900.9844,271.2344 900.2344,271.2344 Q899.5,271.2344 899.0781,271.7656 Q898.6719,272.2969 898.6719,273.2344 Q898.6719,274.1875 899.0781,274.7188 Q899.5,275.25 900.2344,275.25 Q900.9844,275.25 901.4063,274.7188 Q901.8281,274.1875 901.8281,273.2344 Z M903.375,276.6406 L901.75,276.6406 L901.75,275.9688 Q901.4219,276.4063 901,276.6094 Q900.5781,276.8125 899.9688,276.8125 Q898.6094,276.8125 897.7813,275.8438 Q896.9531,274.8594 896.9531,273.2344 Q896.9531,271.6406 897.7813,270.6719 Q898.6094,269.6875 899.9688,269.6875 Q900.5625,269.6875 901.0156,269.8906 Q901.4688,270.0938 901.75,270.4844 L901.75,270.1406 Q901.75,269.0156 901.125,268.4063 Q900.5,267.7813 899.3594,267.7813 Q897.6406,267.7813 896.5469,269.3125 Q895.4531,270.8281 895.4531,273.2656 Q895.4531,275.8125 896.7031,277.3125 Q897.9688,278.8125 900.0781,278.8125 Q900.7344,278.8125 901.3594,278.625 Q901.9844,278.4375 902.5625,278.0469 L903.3281,279.5 Q902.6563,279.9531 901.8594,280.1719 Q901.0625,280.4063 900.1563,280.4063 Q897.25,280.4063 895.5156,278.4688 Q893.7969,276.5469 893.7969,273.2656 Q893.7969,270.0469 895.3438,268.125 Q896.9063,266.1875 899.4688,266.1875 Q901.2656,266.1875 902.3125,267.2813 Q903.375,268.375 903.375,270.25 L903.375,276.6406 Z " fill="#000000"/><text fill="#000000" font-family="sans-serif" font-size="14" lengthAdjust="spacing" textLength="75" x="920.25" y="277.6123">Annotation</text><line style="stroke:#181818;stroke-width:0.5;" x1="848.5" x2="1034.5" y1="288.7656" y2="288.7656"/><text fill="#000000" font-family="sans-serif" font-size="14" lengthAdjust="spacing" textLength="176" x="853.5" y="305.7607">annotation with members</text><line style="stroke:#181818;stroke-width:0.5;" x1="848.5" x2="1034.5" y1="313.0625" y2="313.0625"/><text fill="#000000" font-family="sans-serif" font-size="14" lengthAdjust="spacing" textLength="76" x="853.5" y="330.0576">String foo()</text><text fill="#000000" font-family="sans-serif" font-size="14" lengthAdjust="spacing" textLength="76" x="853.5" y="346.3545">String bar()</text></g><path d="M580.65,490.9693 C588.1414,522.5402 602.0666,581.2248 610.4879,616.7146 " fill="none" style="stroke:#181818;stroke-width:1.0;"/><polygon fill="#FFFFFF" points="580.65,490.9693,578.5062,507.9223,590.182,505.1518,580.65,490.9693" style="stroke:#181818;stroke-width:1.0;"/><path d="M559.4368,490.9693 C534.2261,525.0327 485.6546,590.6598 460.4895,624.6616 " fill="none" style="stroke:#181818;stroke-width:1.0;"/><polygon fill="#FFFFFF" points="559.4368,490.9693,545.0956,500.2607,554.7412,507.3995,559.4368,490.9693" style="stroke:#181818;stroke-width:1.0;"/><path d="M561.6168,490.9447 C553.1479,502.3681 541.3043,515.5697 527.5,523.2656 C486.9101,545.8944 468.1455,525.307 424.5,541.2656 C395.5053,551.8673 387.6915,555.8882 364.5,576.2656 C361.2716,579.1023 358.1034,582.1559 355.0208,585.3449 " fill="none" style="stroke:#181818;stroke-width:1.0;"/><polygon fill="#181818" points="561.6168,490.9447,554.8303,493.3824,554.4702,500.5845,561.2568,498.1468,561.6168,490.9447" style="stroke:#181818;stroke-width:1.0;"/><text fill="#000000" font-family="sans-serif" font-size="13" lengthAdjust="spacing" textLength="80" x="425.5" y="554.3325">identified via</text><text fill="#000000" font-family="sans-serif" font-size="13" lengthAdjust="spacing" textLength="8" x="356.0208" y="581.4118">1</text><text fill="#000000" font-family="sans-serif" font-size="13" lengthAdjust="spacing" textLength="8" x="552.6168" y="504.0116">1</text><path d="M316.8466,718.4749 C318.9755,742.0254 321.2676,767.3827 323.084,787.4762 " fill="none" style="stroke:#181818;stroke-width:1.0;"/><polygon fill="#181818" points="316.8466,718.4749,313.403,724.8107,317.9269,730.4262,321.3705,724.0905,316.8466,718.4749" style="stroke:#181818;stroke-width:1.0;"/><text fill="#000000" font-family="sans-serif" font-size="13" lengthAdjust="spacing" textLength="60" x="321.5" y="749.3325">issued by</text><text fill="#000000" font-family="sans-serif" font-size="13" lengthAdjust="spacing" textLength="7" x="315.084" y="783.5431">*</text><text fill="#000000" font-family="sans-serif" font-size="13" lengthAdjust="spacing" textLength="8" x="307.8466" y="731.5418">1</text><path d="M618.4987,351.7782 C646.8434,404.0535 690.6724,493.316 709.5,576.2656 C726.9226,653.025 747.0692,681.162 715.5,753.2656 C712.7652,759.5119 709.1916,765.4566 705.0787,771.0565 " fill="none" style="stroke:#181818;stroke-width:1.0;"/><polygon fill="#181818" points="618.4987,351.7782,617.8423,358.9594,624.2186,362.3273,624.875,355.1461,618.4987,351.7782" style="stroke:#181818;stroke-width:1.0;"/><text fill="#000000" font-family="sans-serif" font-size="13" lengthAdjust="spacing" textLength="49" x="705.5" y="554.3325">realizes</text><text fill="#000000" font-family="sans-serif" font-size="13" lengthAdjust="spacing" textLength="7" x="697.0787" y="767.1234">*</text><text fill="#000000" font-family="sans-serif" font-size="13" lengthAdjust="spacing" textLength="8" x="609.4987" y="364.8451">1</text><path d="M355.0287,711.5539 C358.0546,714.0226 361.2139,716.2844 364.5,718.2656 C404.673,742.486 424.0922,721.1515 468.5,736.2656 C495.0261,745.2937 522.4536,758.0586 547.2975,771.1097 " fill="none" style="stroke:#181818;stroke-width:1.0;"/><polygon fill="#181818" points="355.0287,711.5539,357.149,718.4462,364.3267,719.1398,362.2064,712.2475,355.0287,711.5539" style="stroke:#181818;stroke-width:1.0;"/><text fill="#000000" font-family="sans-serif" font-size="13" lengthAdjust="spacing" textLength="77" x="508.5" y="749.3325">triggered by</text><text fill="#000000" font-family="sans-serif" font-size="13" lengthAdjust="spacing" textLength="7" x="539.2975" y="767.1766">*</text><text fill="#000000" font-family="sans-serif" font-size="13" lengthAdjust="spacing" textLength="8" x="356.0287" y="724.6207">1</text><path d="M885.1667,710.6692 C877.6227,736.3479 869.1329,765.2458 862.5661,787.5982 " fill="none" style="stroke:#181818;stroke-width:1.0;"/><polygon fill="#181818" points="885.1667,710.6692,879.6377,715.2984,881.7843,722.1826,887.3133,717.5534,885.1667,710.6692" style="stroke:#181818;stroke-width:1.0;"/><text fill="#000000" font-family="sans-serif" font-size="13" lengthAdjust="spacing" textLength="49" x="878.5" y="749.3325">realizes</text><text fill="#000000" font-family="sans-serif" font-size="13" lengthAdjust="spacing" textLength="7" x="854.5661" y="783.6651">*</text><text fill="#000000" font-family="sans-serif" font-size="13" lengthAdjust="spacing" textLength="8" x="876.1667" y="723.7361">1</text><path d="M355.1854,712.2111 C358.1552,714.4694 361.2613,716.5106 364.5,718.2656 C408.7956,742.2692 540.5969,729.3405 590.5,736.2656 C669.4969,747.2281 692.469,741.5992 766.5,771.2656 C777.3731,775.6228 788.3771,781.3981 798.6986,787.5508 " fill="none" style="stroke:#181818;stroke-width:1.0;"/><polygon fill="#181818" points="355.1854,712.2111,357.5403,719.0268,364.7374,719.4746,362.3826,712.6588,355.1854,712.2111" style="stroke:#181818;stroke-width:1.0;"/><text fill="#000000" font-family="sans-serif" font-size="13" lengthAdjust="spacing" textLength="77" x="712.5" y="749.3325">triggered by</text><text fill="#000000" font-family="sans-serif" font-size="13" lengthAdjust="spacing" textLength="7" x="790.6986" y="783.6177">*</text><text fill="#000000" font-family="sans-serif" font-size="13" lengthAdjust="spacing" textLength="8" x="346.1854" y="725.278">1</text><path d="M1086.23,857.0312 C1081.4726,883.9021 1074.51,923.2275 1069.7567,950.0751 " fill="none" style="stroke:#181818;stroke-width:1.0;"/><polygon fill="none" points="1086.23,857.0312,1081.2453,862.2419,1084.138,868.8474,1089.1227,863.6366,1086.23,857.0312" style="stroke:#181818;stroke-width:1.0;"/><text fill="#000000" font-family="sans-serif" font-size="13" lengthAdjust="spacing" textLength="80" x="1079.5" y="912.3325">explained by</text><text fill="#000000" font-family="sans-serif" font-size="13" lengthAdjust="spacing" textLength="7" x="1061.7567" y="946.142">*</text><text fill="#000000" font-family="sans-serif" font-size="13" lengthAdjust="spacing" textLength="7" x="1078.23" y="870.0981">*</text><path d="M932.0576,710.6692 C942.4424,733.362 953.9778,758.5689 963.5796,779.5507 " fill="none" style="stroke:#181818;stroke-width:1.0;"/><polygon fill="none" points="932.0576,710.6692,930.9171,717.7895,937.0511,721.5809,938.1915,714.4606,932.0576,710.6692" style="stroke:#181818;stroke-width:1.0;"/><text fill="#000000" font-family="sans-serif" font-size="13" lengthAdjust="spacing" textLength="97" x="952.5" y="749.3325">recycling saves</text><text fill="#000000" font-family="sans-serif" font-size="13" lengthAdjust="spacing" textLength="7" x="955.5796" y="775.6176">*</text><text fill="#000000" font-family="sans-serif" font-size="13" lengthAdjust="spacing" textLength="24" x="907.0576" y="723.7361">0..1</text><path d="M1008.5026,873.0207 C1021.5736,897.9371 1037.3731,928.055 1048.8526,949.9377 " fill="none" style="stroke:#181818;stroke-width:1.0;"/><polygon fill="none" points="1008.5026,873.0207,1007.7477,880.1921,1014.0772,883.6472,1014.8321,876.4757,1008.5026,873.0207" style="stroke:#181818;stroke-width:1.0;"/><text fill="#000000" font-family="sans-serif" font-size="13" lengthAdjust="spacing" textLength="7" x="1040.8526" y="946.0046">*</text><text fill="#000000" font-family="sans-serif" font-size="13" lengthAdjust="spacing" textLength="7" x="1000.5026" y="886.0875">*</text><path d="M186.8484,360.3954 C166.5168,441.7434 127.5606,600.4693 98.5,736.2656 C95.5044,750.2637 92.4904,765.5558 89.8496,779.4533 " fill="none" style="stroke:#181818;stroke-width:1.0;"/><polygon fill="#181818" points="186.8484,360.3954,181.5129,365.2465,183.9387,372.0373,189.2742,367.1863,186.8484,360.3954" style="stroke:#181818;stroke-width:1.0;"/><text fill="#000000" font-family="sans-serif" font-size="13" lengthAdjust="spacing" textLength="45" x="143.5" y="554.3325">sent to</text><text fill="#000000" font-family="sans-serif" font-size="13" lengthAdjust="spacing" textLength="8" x="90.8496" y="775.5202">1</text><text fill="#000000" font-family="sans-serif" font-size="13" lengthAdjust="spacing" textLength="8" x="177.8484" y="373.4623">1</text><path d="M265.6819,657.7204 C221.636,669.1991 155.2646,692.6769 114.5,736.2656 C103.3563,748.1813 95.8964,764.191 90.9376,779.3463 " fill="none" style="stroke:#181818;stroke-width:1.0;"/><polygon fill="none" points="265.6819,657.7204,258.8671,655.3628,254.0698,660.7466,260.8846,663.1042,265.6819,657.7204" style="stroke:#181818;stroke-width:1.0;"/><text fill="#000000" font-family="sans-serif" font-size="13" lengthAdjust="spacing" textLength="62" x="115.5" y="749.3325">written by</text><text fill="#000000" font-family="sans-serif" font-size="13" lengthAdjust="spacing" textLength="8" x="81.9376" y="775.4132">1</text><text fill="#000000" font-family="sans-serif" font-size="13" lengthAdjust="spacing" textLength="8" x="256.6819" y="653.7873">1</text><path d="M265.9961,683.8952 C241.9163,706.1281 214.5038,736.9849 201.5,771.2656 C184.1605,816.9763 189.1857,833.953 201.5,881.2656 C206.2854,899.6515 215.3407,918.2459 224.7431,934.2512 " fill="none" style="stroke:#181818;stroke-width:1.0;"/><polygon fill="none" points="265.9961,683.8952,258.8743,685.0265,257.1795,692.0356,264.3013,690.9043,265.9961,683.8952" style="stroke:#181818;stroke-width:1.0;"/><text fill="#000000" font-family="sans-serif" font-size="13" lengthAdjust="spacing" textLength="62" x="202.5" y="830.8325">written by</text><text fill="#000000" font-family="sans-serif" font-size="13" lengthAdjust="spacing" textLength="8" x="215.7431" y="930.3181">1</text><text fill="#000000" font-family="sans-serif" font-size="13" lengthAdjust="spacing" textLength="8" x="256.9961" y="679.9621">1</text><path d="M355.2611,708.2446 C358.3059,711.7062 361.398,715.0734 364.5,718.2656 C373.3043,727.3259 377.9538,726.9615 386.5,736.2656 C396.2573,746.8884 405.6637,759.1726 414.0474,771.1579 " fill="none" style="stroke:#181818;stroke-width:1.0;"/><polygon fill="none" points="355.2611,708.2446,356.2202,715.3916,363.1864,717.2551,362.2273,710.108,355.2611,708.2446" style="stroke:#181818;stroke-width:1.0;"/><text fill="#000000" font-family="sans-serif" font-size="13" lengthAdjust="spacing" textLength="62" x="401.5" y="749.3325">written by</text><text fill="#000000" font-family="sans-serif" font-size="13" lengthAdjust="spacing" textLength="8" x="405.0474" y="767.2248">1</text><text fill="#000000" font-family="sans-serif" font-size="13" lengthAdjust="spacing" textLength="8" x="356.2611" y="704.3114">1</text><path d="M395.8187,873.4957 C392.6859,876.1484 389.5631,878.7555 386.5,881.2656 C362.7366,900.7391 335.7645,921.3994 312.5722,938.7424 " fill="none" style="stroke:#181818;stroke-width:1.0;"/><polygon fill="#181818" points="395.8187,873.4957,388.6549,874.3204,386.6608,881.2503,393.8246,880.4256,395.8187,873.4957" style="stroke:#181818;stroke-width:1.0;"/><text fill="#000000" font-family="sans-serif" font-size="13" lengthAdjust="spacing" textLength="62" x="363.5" y="912.3325">discusses</text><text fill="#000000" font-family="sans-serif" font-size="13" lengthAdjust="spacing" textLength="7" x="313.5722" y="934.8093">*</text><text fill="#000000" font-family="sans-serif" font-size="13" lengthAdjust="spacing" textLength="8" x="386.8187" y="869.5626">1</text><path d="M193.4441,360.3404 C189.7121,405.4394 189.4063,470.5981 209.5,523.2656 C221.4176,554.5028 244.6332,583.6898 265.8041,605.7861 " fill="none" style="stroke:#181818;stroke-width:1.0;"/><polygon fill="none" points="193.4441,360.3404,188.9629,365.9901,192.4544,372.2996,196.9356,366.6499,193.4441,360.3404" style="stroke:#181818;stroke-width:1.0;"/><text fill="#000000" font-family="sans-serif" font-size="13" lengthAdjust="spacing" textLength="56" x="210.5" y="472.8325">supports</text><text fill="#000000" font-family="sans-serif" font-size="13" lengthAdjust="spacing" textLength="23" x="241.8041" y="601.853">1..*</text><text fill="#000000" font-family="sans-serif" font-size="13" lengthAdjust="spacing" textLength="8" x="194.4441" y="373.4073">1</text><path d="M255.6374,351.3272 C279.0859,370.4906 306.6304,393.0016 331.1791,413.0643 " fill="none" style="stroke:#181818;stroke-width:1.0;"/><polygon fill="#181818" points="255.6374,351.3272,257.752,358.2213,264.9291,358.9209,262.8145,352.0268,255.6374,351.3272" style="stroke:#181818;stroke-width:1.0;"/><text fill="#000000" font-family="sans-serif" font-size="13" lengthAdjust="spacing" textLength="49" x="306.5" y="391.3325">triggers</text><text fill="#000000" font-family="sans-serif" font-size="13" lengthAdjust="spacing" textLength="7" x="323.1791" y="409.1312">*</text><text fill="#000000" font-family="sans-serif" font-size="13" lengthAdjust="spacing" textLength="8" x="256.6374" y="347.3941">1</text><path d="M537.1424,351.9711 C514.0597,371.0292 487.0747,393.3091 463.0128,413.1756 " fill="none" style="stroke:#181818;stroke-width:1.0;"/><polygon fill="#181818" points="537.1424,351.9711,529.9689,352.7067,527.8889,359.6112,535.0623,358.8757,537.1424,351.9711" style="stroke:#181818;stroke-width:1.0;"/><text fill="#000000" font-family="sans-serif" font-size="13" lengthAdjust="spacing" textLength="81" x="502.5" y="391.3325">described by</text><text fill="#000000" font-family="sans-serif" font-size="13" lengthAdjust="spacing" textLength="7" x="455.0128" y="409.2424">*</text><text fill="#000000" font-family="sans-serif" font-size="13" lengthAdjust="spacing" textLength="8" x="528.1424" y="365.038">1</text><path d="M592.5,197.3206 C592.5,218.6912 592.5,240.435 592.5,258.6862 " fill="none" style="stroke:#181818;stroke-width:1.0;"/><polygon fill="#181818" points="592.5,197.3206,588.5,203.3206,592.5,209.3206,596.5,203.3206,592.5,197.3206" style="stroke:#181818;stroke-width:1.0;"/><text fill="#000000" font-family="sans-serif" font-size="13" lengthAdjust="spacing" textLength="59" x="593.5" y="228.3325">based on</text><text fill="#000000" font-family="sans-serif" font-size="13" lengthAdjust="spacing" textLength="7" x="584.5" y="254.7531">*</text><text fill="#000000" font-family="sans-serif" font-size="13" lengthAdjust="spacing" textLength="8" x="583.5" y="210.3875">1</text><path d="M1269.5648,125.8802 C1273.0277,164.6455 1279.9663,242.3191 1283.4316,281.1111 " fill="none" style="stroke:#181818;stroke-width:1.0;"/><polygon fill="#FFFFFF" points="1269.5648,125.8802,1265.0122,142.3506,1276.9646,141.2829,1269.5648,125.8802" style="stroke:#181818;stroke-width:1.0;"/><path d="M1163.4851,125.8802 C1156.7516,164.6455 1143.2599,242.3191 1136.5219,281.1111 " fill="none" style="stroke:#181818;stroke-width:1.0;"/><polygon fill="#FFFFFF" points="1163.4851,125.8802,1154.8354,140.6174,1166.6584,142.671,1163.4851,125.8802" style="stroke:#181818;stroke-width:1.0;"/><path d="M1217.8906,101.7656 C1225.2545,101.7656 1232.6184,101.7656 1239.9823,101.7656 " fill="none" style="stroke:#181818;stroke-width:1.0;"/><polygon fill="#FFFFFF" points="1217.8906,101.7656,1233.8906,107.7656,1233.8906,95.7656,1217.8906,101.7656" style="stroke:#181818;stroke-width:1.0;"/><path d="M1211.0918,305.2656 C1217.1956,305.2656 1223.2994,305.2656 1229.4032,305.2656 " fill="none" style="stroke:#181818;stroke-width:1.0;"/><polygon fill="#FFFFFF" points="1211.0918,305.2656,1227.0918,311.2656,1227.0918,299.2656,1211.0918,305.2656" style="stroke:#181818;stroke-width:1.0;"/><path d="M1285.5,329.333 C1285.5,354.983 1285.5,396.8654 1285.5,427.7598 " fill="none" style="stroke:#181818;stroke-width:1.0;"/><polygon fill="#FFFFFF" points="1285.5,329.333,1279.5,345.333,1291.5,345.333,1285.5,329.333" style="stroke:#181818;stroke-width:1.0;"/><!--MD5=[d421ef95fd28c54b6b61c2fc3b3e40e0]
@startuml ER

!pragma layout smetana

!include ./domain.puml

abstract class AbstractList
abstract AbstractCollection
interface List
interface Collection

List <|- - AbstractList
Collection <|- - AbstractCollection

Collection <|- List
AbstractCollection <|- AbstractList
AbstractList <|- - ArrayList

class ArrayList {
  Object[] elementData
  size()
}

enum TimeUnit {
  DAYS
  HOURS
  MINUTES
}

annotation SuppressWarnings

annotation Annotation {
  annotation with members
  String foo()
  String bar()
}

@enduml

@startuml ER

!pragma layout smetana


!pragma layout smetana

left to right direction


Object "user" as u {
    name
    description
    location
    exp
    guildRank
    //guild//
    //account//
}

Object "account" as acc {
    supportId
}

Object "self managed account" as accsm {
    email
    password
}

Object "federated Account" as accf {
  foreignId
}

acc <|- - accsm
acc <|- - accf

Object "user session" as us {
    //user//
    token
    expires
}

Object "item" as i {
    ean
    //materials//
    //reduction//
    verified
}

Object "materialType" as mt {
    name
    //recyclingInfo//
}

Object "recyclingInfo" as ri {
    region
    whatToDo
}

Object "blog post" as bp {
    //author//
    blogTitle
    date
    updatedDate
    //comments//
}

Object "blogComment" as bc {
    //author//
    //blog//
    date
    content
}

Object "guild" as g {
    name
    description
    exp
    //chatMessages//
    //members//
}

Object "guild chat message" as gcm {
    //author//
    //guild//
    date
    message
}

Object "challenge base" as cb {
    name
    desciption
    daily-available
    daily-amount
    monthly-available
    monthly-amount
    guilde-available
    guild-amount
    guild-multiplyer
    exp
}

Object "challenge" as c {
    //challengeBase//
    startDate
    endDate
    type
}

Object "user challenge experience event" as ucee {
    //user//
    //challenge//
    counter
    status
    date
}

Object "guild challenge experience event" as gcee {
    //guild//
    //challenge//
    counter
    status
    date
}

Object "reduction" as r {
    name
    description
    co2
    water
    trashWeight
    exp
}

Object "reduction exp event" as ree {
    //user//
    date
    //reduction//
}

Object "comparison values" as cv {
    type
    value
}

acc::account "1" *- - "1" u : "identified via"

u "1" *- - "*" us::user : "issued by"

c "1" *- - "*" ucee::challenge : "realizes"
u "1" *- - "*" ucee::user : "triggered by"

r "1" *- - "*" ree::reduction : "realizes"
u "1" *- - "*" ree::user : "triggered by"

ri "*" o- - "*" mt::recyclingInfo : "explained by"
r "0..1" o- - "*" i : "recycling saves"

i::materials "*" o- - "*" mt

g "1" *- "1" gcm : "sent to"
u "1" o- - "1" gcm::author : "written by"

u "1" o- - "1" bc::author : "written by"
u "1" o- - "1" bp::author : "written by"
bp::comments "1" *- - "*" bc : "discusses"

g "1" o- - - "1..*" u::guild : "supports"

g "1" *- - "*" gcee::guild : "triggers"
c "1" *- - "*" gcee::challenge : "described by"

cb "1" *- - "*" c::challengeBase : "based on"


abstract class AbstractList
abstract AbstractCollection
interface List
interface Collection

List <|- - AbstractList
Collection <|- - AbstractCollection

Collection <|- List
AbstractCollection <|- AbstractList
AbstractList <|- - ArrayList

class ArrayList {
  Object[] elementData
  size()
}

enum TimeUnit {
  DAYS
  HOURS
  MINUTES
}

annotation SuppressWarnings

annotation Annotation {
  annotation with members
  String foo()
  String bar()
}

@enduml

PlantUML version 1.2022.2(Sat Mar 05 16:30:19 UTC 2022)
(GPL source distribution)
Java Runtime: OpenJDK Runtime Environment
JVM: OpenJDK 64-Bit Server VM
Default Encoding: UTF-8
Language: en
Country: null
--></g></svg>