<?xml version="1.0" encoding="UTF-8" standalone="no"?><svg xmlns="http://www.w3.org/2000/svg" xmlns:xlink="http://www.w3.org/1999/xlink" contentStyleType="text/css" height="1548px" preserveAspectRatio="none" style="width:1393px;height:1548px;background:#FFFFFF;" version="1.1" viewBox="0 0 1393 1548" width="1393px" zoomAndPan="magnify"><defs/><g><g id="elem_u"><rect fill="#F1F1F1" height="142.375" style="stroke:#181818;stroke-width:0.5;" width="89" x="580" y="869"/><text fill="#000000" font-family="sans-serif" font-size="14" lengthAdjust="spacing" textLength="31" x="609" y="883.9951">user</text><line style="stroke:#181818;stroke-width:0.5;" x1="581" x2="668" y1="889.2969" y2="889.2969"/><text fill="#000000" font-family="sans-serif" font-size="14" lengthAdjust="spacing" textLength="39" x="586" y="906.292">name</text><text fill="#000000" font-family="sans-serif" font-size="14" lengthAdjust="spacing" textLength="77" x="586" y="922.5889">description</text><text fill="#000000" font-family="sans-serif" font-size="14" lengthAdjust="spacing" textLength="54" x="586" y="938.8857">location</text><text fill="#000000" font-family="sans-serif" font-size="14" lengthAdjust="spacing" textLength="25" x="586" y="955.1826">exp</text><text fill="#000000" font-family="sans-serif" font-size="14" lengthAdjust="spacing" textLength="68" x="586" y="971.4795">guildRank</text><text fill="#000000" font-family="sans-serif" font-size="14" font-style="italic" lengthAdjust="spacing" textLength="33" x="586" y="987.7764">guild</text><text fill="#000000" font-family="sans-serif" font-size="14" font-style="italic" lengthAdjust="spacing" textLength="56" x="586" y="1004.0732">account</text></g><g id="elem_acc"><rect fill="#F1F1F1" height="44.5938" style="stroke:#181818;stroke-width:0.5;" width="78" x="266" y="1393.5"/><text fill="#000000" font-family="sans-serif" font-size="14" lengthAdjust="spacing" textLength="56" x="277" y="1408.4951">account</text><line style="stroke:#181818;stroke-width:0.5;" x1="267" x2="343" y1="1413.7969" y2="1413.7969"/><text fill="#000000" font-family="sans-serif" font-size="14" lengthAdjust="spacing" textLength="66" x="272" y="1430.792">supportId</text></g><g id="elem_accsm"><rect fill="#F1F1F1" height="60.8906" style="stroke:#181818;stroke-width:0.5;" width="167" x="541" y="1473"/><text fill="#000000" font-family="sans-serif" font-size="14" lengthAdjust="spacing" textLength="153" x="548" y="1487.9951">self managed account</text><line style="stroke:#181818;stroke-width:0.5;" x1="542" x2="707" y1="1493.2969" y2="1493.2969"/><text fill="#000000" font-family="sans-serif" font-size="14" lengthAdjust="spacing" textLength="36" x="547" y="1510.292">email</text><text fill="#000000" font-family="sans-serif" font-size="14" lengthAdjust="spacing" textLength="67" x="547" y="1526.5889">password</text></g><g id="elem_accf"><rect fill="#F1F1F1" height="44.5938" style="stroke:#181818;stroke-width:0.5;" width="142" x="553.5" y="1393"/><text fill="#000000" font-family="sans-serif" font-size="14" lengthAdjust="spacing" textLength="128" x="560.5" y="1407.9951">federated Account</text><line style="stroke:#181818;stroke-width:0.5;" x1="554.5" x2="694.5" y1="1413.2969" y2="1413.2969"/><text fill="#000000" font-family="sans-serif" font-size="14" lengthAdjust="spacing" textLength="60" x="559.5" y="1430.292">foreignId</text></g><g id="elem_us"><rect fill="#F1F1F1" height="77.1875" style="stroke:#181818;stroke-width:0.5;" width="103" x="944.5" y="1111.5"/><text fill="#000000" font-family="sans-serif" font-size="14" lengthAdjust="spacing" textLength="89" x="951.5" y="1126.4951">user session</text><line style="stroke:#181818;stroke-width:0.5;" x1="945.5" x2="1046.5" y1="1131.7969" y2="1131.7969"/><text fill="#000000" font-family="sans-serif" font-size="14" font-style="italic" lengthAdjust="spacing" textLength="30" x="950.5" y="1148.792">user</text><text fill="#000000" font-family="sans-serif" font-size="14" lengthAdjust="spacing" textLength="40" x="950.5" y="1165.0889">token</text><text fill="#000000" font-family="sans-serif" font-size="14" lengthAdjust="spacing" textLength="50" x="950.5" y="1181.3857">expires</text></g><g id="elem_i"><rect fill="#F1F1F1" height="93.4844" style="stroke:#181818;stroke-width:0.5;" width="78" x="957" y="1349.5"/><text fill="#000000" font-family="sans-serif" font-size="14" lengthAdjust="spacing" textLength="30" x="981" y="1364.4951">item</text><line style="stroke:#181818;stroke-width:0.5;" x1="958" x2="1034" y1="1369.7969" y2="1369.7969"/><text fill="#000000" font-family="sans-serif" font-size="14" lengthAdjust="spacing" textLength="26" x="963" y="1386.792">ean</text><text fill="#000000" font-family="sans-serif" font-size="14" font-style="italic" lengthAdjust="spacing" textLength="61" x="963" y="1403.0889">materials</text><text fill="#000000" font-family="sans-serif" font-size="14" font-style="italic" lengthAdjust="spacing" textLength="66" x="963" y="1419.3857">reduction</text><text fill="#000000" font-family="sans-serif" font-size="14" lengthAdjust="spacing" textLength="49" x="963" y="1435.6826">verified</text></g><g id="elem_mt"><rect fill="#F1F1F1" height="60.8906" style="stroke:#181818;stroke-width:0.5;" width="102" x="1280" y="1433.5"/><text fill="#000000" font-family="sans-serif" font-size="14" lengthAdjust="spacing" textLength="88" x="1287" y="1448.4951">materialType</text><line style="stroke:#181818;stroke-width:0.5;" x1="1281" x2="1381" y1="1453.7969" y2="1453.7969"/><text fill="#000000" font-family="sans-serif" font-size="14" lengthAdjust="spacing" textLength="39" x="1286" y="1470.792">name</text><text fill="#000000" font-family="sans-serif" font-size="14" font-style="italic" lengthAdjust="spacing" textLength="88" x="1286" y="1487.0889">recyclingInfo</text></g><g id="elem_ri"><rect fill="#F1F1F1" height="60.8906" style="stroke:#181818;stroke-width:0.5;" width="100" x="946" y="1481"/><text fill="#000000" font-family="sans-serif" font-size="14" lengthAdjust="spacing" textLength="86" x="953" y="1495.9951">recyclingInfo</text><line style="stroke:#181818;stroke-width:0.5;" x1="947" x2="1045" y1="1501.2969" y2="1501.2969"/><text fill="#000000" font-family="sans-serif" font-size="14" lengthAdjust="spacing" textLength="44" x="952" y="1518.292">region</text><text fill="#000000" font-family="sans-serif" font-size="14" lengthAdjust="spacing" textLength="71" x="952" y="1534.5889">whatToDo</text></g><g id="elem_bp"><rect fill="#F1F1F1" height="109.7813" style="stroke:#181818;stroke-width:0.5;" width="103" x="944.5" y="960.5"/><text fill="#000000" font-family="sans-serif" font-size="14" lengthAdjust="spacing" textLength="65" x="963.5" y="975.4951">blog post</text><line style="stroke:#181818;stroke-width:0.5;" x1="945.5" x2="1046.5" y1="980.7969" y2="980.7969"/><text fill="#000000" font-family="sans-serif" font-size="14" font-style="italic" lengthAdjust="spacing" textLength="45" x="950.5" y="997.792">author</text><text fill="#000000" font-family="sans-serif" font-size="14" lengthAdjust="spacing" textLength="59" x="950.5" y="1014.0889">blogTitle</text><text fill="#000000" font-family="sans-serif" font-size="14" lengthAdjust="spacing" textLength="31" x="950.5" y="1030.3857">date</text><text fill="#000000" font-family="sans-serif" font-size="14" lengthAdjust="spacing" textLength="91" x="950.5" y="1046.6826">updatedDate</text><text fill="#000000" font-family="sans-serif" font-size="14" font-style="italic" lengthAdjust="spacing" textLength="73" x="950.5" y="1062.9795">comments</text></g><g id="elem_bc"><rect fill="#F1F1F1" height="93.4844" style="stroke:#181818;stroke-width:0.5;" width="112" x="1275" y="899.5"/><text fill="#000000" font-family="sans-serif" font-size="14" lengthAdjust="spacing" textLength="98" x="1282" y="914.4951">blogComment</text><line style="stroke:#181818;stroke-width:0.5;" x1="1276" x2="1386" y1="919.7969" y2="919.7969"/><text fill="#000000" font-family="sans-serif" font-size="14" font-style="italic" lengthAdjust="spacing" textLength="45" x="1281" y="936.792">author</text><text fill="#000000" font-family="sans-serif" font-size="14" font-style="italic" lengthAdjust="spacing" textLength="30" x="1281" y="953.0889">blog</text><text fill="#000000" font-family="sans-serif" font-size="14" lengthAdjust="spacing" textLength="31" x="1281" y="969.3857">date</text><text fill="#000000" font-family="sans-serif" font-size="14" lengthAdjust="spacing" textLength="54" x="1281" y="985.6826">content</text></g><g id="elem_g"><rect fill="#F1F1F1" height="109.7813" style="stroke:#181818;stroke-width:0.5;" width="110" x="23.5" y="679.5"/><text fill="#000000" font-family="sans-serif" font-size="14" lengthAdjust="spacing" textLength="33" x="62" y="694.4951">guild</text><line style="stroke:#181818;stroke-width:0.5;" x1="24.5" x2="132.5" y1="699.7969" y2="699.7969"/><text fill="#000000" font-family="sans-serif" font-size="14" lengthAdjust="spacing" textLength="39" x="29.5" y="716.792">name</text><text fill="#000000" font-family="sans-serif" font-size="14" lengthAdjust="spacing" textLength="77" x="29.5" y="733.0889">description</text><text fill="#000000" font-family="sans-serif" font-size="14" lengthAdjust="spacing" textLength="25" x="29.5" y="749.3857">exp</text><text fill="#000000" font-family="sans-serif" font-size="14" font-style="italic" lengthAdjust="spacing" textLength="98" x="29.5" y="765.6826">chatMessages</text><text fill="#000000" font-family="sans-serif" font-size="14" font-style="italic" lengthAdjust="spacing" textLength="65" x="29.5" y="781.9795">members</text></g><g id="elem_gcm"><rect fill="#F1F1F1" height="93.4844" style="stroke:#181818;stroke-width:0.5;" width="149" x="921.5" y="721.5"/><text fill="#000000" font-family="sans-serif" font-size="14" lengthAdjust="spacing" textLength="135" x="928.5" y="736.4951">guild chat message</text><line style="stroke:#181818;stroke-width:0.5;" x1="922.5" x2="1069.5" y1="741.7969" y2="741.7969"/><text fill="#000000" font-family="sans-serif" font-size="14" font-style="italic" lengthAdjust="spacing" textLength="45" x="927.5" y="758.792">author</text><text fill="#000000" font-family="sans-serif" font-size="14" font-style="italic" lengthAdjust="spacing" textLength="33" x="927.5" y="775.0889">guild</text><text fill="#000000" font-family="sans-serif" font-size="14" lengthAdjust="spacing" textLength="31" x="927.5" y="791.3857">date</text><text fill="#000000" font-family="sans-serif" font-size="14" lengthAdjust="spacing" textLength="64" x="927.5" y="807.6826">message</text></g><g id="elem_cb"><rect fill="#F1F1F1" height="191.2656" style="stroke:#181818;stroke-width:0.5;" width="130" x="240" y="490"/><text fill="#000000" font-family="sans-serif" font-size="14" lengthAdjust="spacing" textLength="105" x="252.5" y="504.9951">challenge base</text><line style="stroke:#181818;stroke-width:0.5;" x1="241" x2="369" y1="510.2969" y2="510.2969"/><text fill="#000000" font-family="sans-serif" font-size="14" lengthAdjust="spacing" textLength="39" x="246" y="527.292">name</text><text fill="#000000" font-family="sans-serif" font-size="14" lengthAdjust="spacing" textLength="72" x="246" y="543.5889">desciption</text><text fill="#000000" font-family="sans-serif" font-size="14" lengthAdjust="spacing" textLength="93" x="246" y="559.8857">daily-available</text><text fill="#000000" font-family="sans-serif" font-size="14" lengthAdjust="spacing" textLength="88" x="246" y="576.1826">daily-amount</text><text fill="#000000" font-family="sans-serif" font-size="14" lengthAdjust="spacing" textLength="118" x="246" y="592.4795">monthly-available</text><text fill="#000000" font-family="sans-serif" font-size="14" lengthAdjust="spacing" textLength="113" x="246" y="608.7764">monthly-amount</text><text fill="#000000" font-family="sans-serif" font-size="14" lengthAdjust="spacing" textLength="105" x="246" y="625.0732">guilde-available</text><text fill="#000000" font-family="sans-serif" font-size="14" lengthAdjust="spacing" textLength="91" x="246" y="641.3701">guild-amount</text><text fill="#000000" font-family="sans-serif" font-size="14" lengthAdjust="spacing" textLength="104" x="246" y="657.667">guild-multiplyer</text><text fill="#000000" font-family="sans-serif" font-size="14" lengthAdjust="spacing" textLength="25" x="246" y="673.9639">exp</text></g><g id="elem_c"><rect fill="#F1F1F1" height="93.4844" style="stroke:#181818;stroke-width:0.5;" width="113" x="568" y="553.5"/><text fill="#000000" font-family="sans-serif" font-size="14" lengthAdjust="spacing" textLength="67" x="591" y="568.4951">challenge</text><line style="stroke:#181818;stroke-width:0.5;" x1="569" x2="680" y1="573.7969" y2="573.7969"/><text fill="#000000" font-family="sans-serif" font-size="14" font-style="italic" lengthAdjust="spacing" textLength="101" x="574" y="590.792">challengeBase</text><text fill="#000000" font-family="sans-serif" font-size="14" lengthAdjust="spacing" textLength="64" x="574" y="607.0889">startDate</text><text fill="#000000" font-family="sans-serif" font-size="14" lengthAdjust="spacing" textLength="60" x="574" y="623.3857">endDate</text><text fill="#000000" font-family="sans-serif" font-size="14" lengthAdjust="spacing" textLength="30" x="574" y="639.6826">type</text></g><g id="elem_ucee"><rect fill="#F1F1F1" height="109.7813" style="stroke:#181818;stroke-width:0.5;" width="240" x="876" y="561.5"/><text fill="#000000" font-family="sans-serif" font-size="14" lengthAdjust="spacing" textLength="226" x="883" y="576.4951">user challenge experience event</text><line style="stroke:#181818;stroke-width:0.5;" x1="877" x2="1115" y1="581.7969" y2="581.7969"/><text fill="#000000" font-family="sans-serif" font-size="14" font-style="italic" lengthAdjust="spacing" textLength="30" x="882" y="598.792">user</text><text fill="#000000" font-family="sans-serif" font-size="14" font-style="italic" lengthAdjust="spacing" textLength="67" x="882" y="615.0889">challenge</text><text fill="#000000" font-family="sans-serif" font-size="14" lengthAdjust="spacing" textLength="54" x="882" y="631.3857">counter</text><text fill="#000000" font-family="sans-serif" font-size="14" lengthAdjust="spacing" textLength="43" x="882" y="647.6826">status</text><text fill="#000000" font-family="sans-serif" font-size="14" lengthAdjust="spacing" textLength="31" x="882" y="663.9795">date</text></g><g id="elem_gcee"><rect fill="#F1F1F1" height="109.7813" style="stroke:#181818;stroke-width:0.5;" width="242" x="875" y="406.5"/><text fill="#000000" font-family="sans-serif" font-size="14" lengthAdjust="spacing" textLength="228" x="882" y="421.4951">guild challenge experience event</text><line style="stroke:#181818;stroke-width:0.5;" x1="876" x2="1116" y1="426.7969" y2="426.7969"/><text fill="#000000" font-family="sans-serif" font-size="14" font-style="italic" lengthAdjust="spacing" textLength="33" x="881" y="443.792">guild</text><text fill="#000000" font-family="sans-serif" font-size="14" font-style="italic" lengthAdjust="spacing" textLength="67" x="881" y="460.0889">challenge</text><text fill="#000000" font-family="sans-serif" font-size="14" lengthAdjust="spacing" textLength="54" x="881" y="476.3857">counter</text><text fill="#000000" font-family="sans-serif" font-size="14" lengthAdjust="spacing" textLength="43" x="881" y="492.6826">status</text><text fill="#000000" font-family="sans-serif" font-size="14" lengthAdjust="spacing" textLength="31" x="881" y="508.9795">date</text></g><g id="elem_r"><rect fill="#F1F1F1" height="126.0781" style="stroke:#181818;stroke-width:0.5;" width="95" x="577" y="1231.5"/><text fill="#000000" font-family="sans-serif" font-size="14" lengthAdjust="spacing" textLength="66" x="591.5" y="1246.4951">reduction</text><line style="stroke:#181818;stroke-width:0.5;" x1="578" x2="671" y1="1251.7969" y2="1251.7969"/><text fill="#000000" font-family="sans-serif" font-size="14" lengthAdjust="spacing" textLength="39" x="583" y="1268.792">name</text><text fill="#000000" font-family="sans-serif" font-size="14" lengthAdjust="spacing" textLength="77" x="583" y="1285.0889">description</text><text fill="#000000" font-family="sans-serif" font-size="14" lengthAdjust="spacing" textLength="26" x="583" y="1301.3857">co2</text><text fill="#000000" font-family="sans-serif" font-size="14" lengthAdjust="spacing" textLength="38" x="583" y="1317.6826">water</text><text fill="#000000" font-family="sans-serif" font-size="14" lengthAdjust="spacing" textLength="83" x="583" y="1333.9795">trashWeight</text><text fill="#000000" font-family="sans-serif" font-size="14" lengthAdjust="spacing" textLength="25" x="583" y="1350.2764">exp</text></g><g id="elem_ree"><rect fill="#F1F1F1" height="77.1875" style="stroke:#181818;stroke-width:0.5;" width="152" x="920" y="1230.5"/><text fill="#000000" font-family="sans-serif" font-size="14" lengthAdjust="spacing" textLength="138" x="927" y="1245.4951">reduction exp event</text><line style="stroke:#181818;stroke-width:0.5;" x1="921" x2="1071" y1="1250.7969" y2="1250.7969"/><text fill="#000000" font-family="sans-serif" font-size="14" font-style="italic" lengthAdjust="spacing" textLength="30" x="926" y="1267.792">user</text><text fill="#000000" font-family="sans-serif" font-size="14" lengthAdjust="spacing" textLength="31" x="926" y="1284.0889">date</text><text fill="#000000" font-family="sans-serif" font-size="14" font-style="italic" lengthAdjust="spacing" textLength="66" x="926" y="1300.3857">reduction</text></g><g id="elem_cv"><rect fill="#F1F1F1" height="60.8906" style="stroke:#181818;stroke-width:0.5;" width="143" x="7" y="7"/><text fill="#000000" font-family="sans-serif" font-size="14" lengthAdjust="spacing" textLength="129" x="14" y="21.9951">comparison values</text><line style="stroke:#181818;stroke-width:0.5;" x1="8" x2="149" y1="27.2969" y2="27.2969"/><text fill="#000000" font-family="sans-serif" font-size="14" lengthAdjust="spacing" textLength="30" x="13" y="44.292">type</text><text fill="#000000" font-family="sans-serif" font-size="14" lengthAdjust="spacing" textLength="36" x="13" y="60.5889">value</text></g><!--MD5=[b4fa10df80476353258f72a232547d63]
class AbstractList--><g id="elem_AbstractList"><rect codeLine="3" fill="#F1F1F1" height="48" id="AbstractList" rx="2.5" ry="2.5" style="stroke:#181818;stroke-width:0.5;" width="112" x="249" y="318.5"/><ellipse cx="264" cy="334.5" fill="#A9DCDF" rx="11" ry="11" style="stroke:#181818;stroke-width:1.0;"/><path d="M264.1094,329.8438 L262.9531,334.9219 L265.2813,334.9219 L264.1094,329.8438 Z M262.625,327.6094 L265.6094,327.6094 L268.9688,340 L266.5156,340 L265.75,336.9375 L262.4688,336.9375 L261.7188,340 L259.2813,340 L262.625,327.6094 Z " fill="#000000"/><text fill="#000000" font-family="sans-serif" font-size="14" font-style="italic" lengthAdjust="spacing" textLength="80" x="278" y="339.3467">AbstractList</text><line style="stroke:#181818;stroke-width:0.5;" x1="250" x2="360" y1="350.5" y2="350.5"/><line style="stroke:#181818;stroke-width:0.5;" x1="250" x2="360" y1="358.5" y2="358.5"/></g><!--MD5=[8e34b16d8d8f96f4a11290cd523ed859]
class AbstractCollection--><g id="elem_AbstractCollection"><rect codeLine="4" fill="#F1F1F1" height="48" id="AbstractCollection" rx="2.5" ry="2.5" style="stroke:#181818;stroke-width:0.5;" width="157" x="226.5" y="235.5"/><ellipse cx="241.5" cy="251.5" fill="#A9DCDF" rx="11" ry="11" style="stroke:#181818;stroke-width:1.0;"/><path d="M241.6094,246.8438 L240.4531,251.9219 L242.7813,251.9219 L241.6094,246.8438 Z M240.125,244.6094 L243.1094,244.6094 L246.4688,257 L244.0156,257 L243.25,253.9375 L239.9688,253.9375 L239.2188,257 L236.7813,257 L240.125,244.6094 Z " fill="#000000"/><text fill="#000000" font-family="sans-serif" font-size="14" font-style="italic" lengthAdjust="spacing" textLength="125" x="255.5" y="256.3467">AbstractCollection</text><line style="stroke:#181818;stroke-width:0.5;" x1="227.5" x2="382.5" y1="267.5" y2="267.5"/><line style="stroke:#181818;stroke-width:0.5;" x1="227.5" x2="382.5" y1="275.5" y2="275.5"/></g><!--MD5=[3d4177ac58b4411586d067f34e84928f]
class List--><g id="elem_List"><rect codeLine="5" fill="#F1F1F1" height="48" id="List" rx="2.5" ry="2.5" style="stroke:#181818;stroke-width:0.5;" width="55" x="51" y="318.5"/><ellipse cx="66" cy="334.5" fill="#B4A7E5" rx="11" ry="11" style="stroke:#181818;stroke-width:1.0;"/><path d="M61.9219,330.2656 L61.9219,328.1094 L69.3125,328.1094 L69.3125,330.2656 L66.8438,330.2656 L66.8438,338.3438 L69.3125,338.3438 L69.3125,340.5 L61.9219,340.5 L61.9219,338.3438 L64.3906,338.3438 L64.3906,330.2656 L61.9219,330.2656 Z " fill="#000000"/><text fill="#000000" font-family="sans-serif" font-size="14" font-style="italic" lengthAdjust="spacing" textLength="23" x="80" y="339.3467">List</text><line style="stroke:#181818;stroke-width:0.5;" x1="52" x2="105" y1="350.5" y2="350.5"/><line style="stroke:#181818;stroke-width:0.5;" x1="52" x2="105" y1="358.5" y2="358.5"/></g><!--MD5=[c160724f8e3bb89ca8141a12554ac2e3]
class Collection--><g id="elem_Collection"><rect codeLine="6" fill="#F1F1F1" height="48" id="Collection" rx="2.5" ry="2.5" style="stroke:#181818;stroke-width:0.5;" width="100" x="28.5" y="235.5"/><ellipse cx="43.5" cy="251.5" fill="#B4A7E5" rx="11" ry="11" style="stroke:#181818;stroke-width:1.0;"/><path d="M39.4219,247.2656 L39.4219,245.1094 L46.8125,245.1094 L46.8125,247.2656 L44.3438,247.2656 L44.3438,255.3438 L46.8125,255.3438 L46.8125,257.5 L39.4219,257.5 L39.4219,255.3438 L41.8906,255.3438 L41.8906,247.2656 L39.4219,247.2656 Z " fill="#000000"/><text fill="#000000" font-family="sans-serif" font-size="14" font-style="italic" lengthAdjust="spacing" textLength="68" x="57.5" y="256.3467">Collection</text><line style="stroke:#181818;stroke-width:0.5;" x1="29.5" x2="127.5" y1="267.5" y2="267.5"/><line style="stroke:#181818;stroke-width:0.5;" x1="29.5" x2="127.5" y1="275.5" y2="275.5"/></g><!--MD5=[ab8871ed637f40707b866ba6597734bc]
class ArrayList--><g id="elem_ArrayList"><rect codeLine="15" fill="#F1F1F1" height="80.5938" id="ArrayList" rx="2.5" ry="2.5" style="stroke:#181818;stroke-width:0.5;" width="160" x="544.5" y="302"/><ellipse cx="591.75" cy="318" fill="#ADD1B2" rx="11" ry="11" style="stroke:#181818;stroke-width:1.0;"/><path d="M594.7188,323.6406 Q594.1406,323.9375 593.5,324.0781 Q592.8594,324.2344 592.1563,324.2344 Q589.6563,324.2344 588.3281,322.5938 Q587.0156,320.9375 587.0156,317.8125 Q587.0156,314.6875 588.3281,313.0313 Q589.6563,311.375 592.1563,311.375 Q592.8594,311.375 593.5,311.5313 Q594.1563,311.6875 594.7188,311.9844 L594.7188,314.7031 Q594.0938,314.125 593.5,313.8594 Q592.9063,313.5781 592.2813,313.5781 Q590.9375,313.5781 590.25,314.6563 Q589.5625,315.7188 589.5625,317.8125 Q589.5625,319.9063 590.25,320.9844 Q590.9375,322.0469 592.2813,322.0469 Q592.9063,322.0469 593.5,321.7813 Q594.0938,321.5 594.7188,320.9219 L594.7188,323.6406 Z " fill="#000000"/><text fill="#000000" font-family="sans-serif" font-size="14" lengthAdjust="spacing" textLength="57" x="612.25" y="322.8467">ArrayList</text><line style="stroke:#181818;stroke-width:0.5;" x1="545.5" x2="703.5" y1="334" y2="334"/><text fill="#000000" font-family="sans-serif" font-size="14" lengthAdjust="spacing" textLength="148" x="550.5" y="350.9951">Object[] elementData</text><line style="stroke:#181818;stroke-width:0.5;" x1="545.5" x2="703.5" y1="358.2969" y2="358.2969"/><text fill="#000000" font-family="sans-serif" font-size="14" lengthAdjust="spacing" textLength="38" x="550.5" y="375.292">size()</text></g><!--MD5=[15b68e006199004da79ea2a4d117d8e9]
class TimeUnit--><g id="elem_TimeUnit"><rect codeLine="20" fill="#F1F1F1" height="96.8906" id="TimeUnit" rx="2.5" ry="2.5" style="stroke:#181818;stroke-width:0.5;" width="93" x="32" y="103"/><ellipse cx="47" cy="119" fill="#EB937F" rx="11" ry="11" style="stroke:#181818;stroke-width:1.0;"/><path d="M51.1094,125 L43.3906,125 L43.3906,112.6094 L51.1094,112.6094 L51.1094,114.7656 L45.8438,114.7656 L45.8438,117.4375 L50.6094,117.4375 L50.6094,119.5938 L45.8438,119.5938 L45.8438,122.8438 L51.1094,122.8438 L51.1094,125 Z " fill="#000000"/><text fill="#000000" font-family="sans-serif" font-size="14" lengthAdjust="spacing" textLength="61" x="61" y="123.8467">TimeUnit</text><line style="stroke:#181818;stroke-width:0.5;" x1="33" x2="124" y1="135" y2="135"/><text fill="#000000" font-family="sans-serif" font-size="14" lengthAdjust="spacing" textLength="38" x="38" y="151.9951">DAYS</text><text fill="#000000" font-family="sans-serif" font-size="14" lengthAdjust="spacing" textLength="50" x="38" y="168.292">HOURS</text><text fill="#000000" font-family="sans-serif" font-size="14" lengthAdjust="spacing" textLength="62" x="38" y="184.5889">MINUTES</text><line style="stroke:#181818;stroke-width:0.5;" x1="33" x2="124" y1="191.8906" y2="191.8906"/></g><!--MD5=[0c8287f799745f7b534bf75518604c1e]
class SuppressWarnings--><g id="elem_SuppressWarnings"><rect codeLine="26" fill="#F1F1F1" height="48" id="SuppressWarnings" rx="2.5" ry="2.5" style="stroke:#181818;stroke-width:0.5;" width="162" x="224" y="13.5"/><ellipse cx="239" cy="29.5" fill="#E3664A" rx="11" ry="11" style="stroke:#181818;stroke-width:1.0;"/><path d="M241.0781,29.9688 Q241.0781,29.0313 240.6563,28.5 Q240.2344,27.9688 239.4844,27.9688 Q238.75,27.9688 238.3281,28.5 Q237.9219,29.0313 237.9219,29.9688 Q237.9219,30.9219 238.3281,31.4531 Q238.75,31.9844 239.4844,31.9844 Q240.2344,31.9844 240.6563,31.4531 Q241.0781,30.9219 241.0781,29.9688 Z M242.625,33.375 L241,33.375 L241,32.7031 Q240.6719,33.1406 240.25,33.3438 Q239.8281,33.5469 239.2188,33.5469 Q237.8594,33.5469 237.0313,32.5781 Q236.2031,31.5938 236.2031,29.9688 Q236.2031,28.375 237.0313,27.4063 Q237.8594,26.4219 239.2188,26.4219 Q239.8125,26.4219 240.2656,26.625 Q240.7188,26.8281 241,27.2188 L241,26.875 Q241,25.75 240.375,25.1406 Q239.75,24.5156 238.6094,24.5156 Q236.8906,24.5156 235.7969,26.0469 Q234.7031,27.5625 234.7031,30 Q234.7031,32.5469 235.9531,34.0469 Q237.2188,35.5469 239.3281,35.5469 Q239.9844,35.5469 240.6094,35.3594 Q241.2344,35.1719 241.8125,34.7813 L242.5781,36.2344 Q241.9063,36.6875 241.1094,36.9063 Q240.3125,37.1406 239.4063,37.1406 Q236.5,37.1406 234.7656,35.2031 Q233.0469,33.2813 233.0469,30 Q233.0469,26.7813 234.5938,24.8594 Q236.1563,22.9219 238.7188,22.9219 Q240.5156,22.9219 241.5625,24.0156 Q242.625,25.1094 242.625,26.9844 L242.625,33.375 Z " fill="#000000"/><text fill="#000000" font-family="sans-serif" font-size="14" lengthAdjust="spacing" textLength="130" x="253" y="34.3467">SuppressWarnings</text><line style="stroke:#181818;stroke-width:0.5;" x1="225" x2="385" y1="45.5" y2="45.5"/><line style="stroke:#181818;stroke-width:0.5;" x1="225" x2="385" y1="53.5" y2="53.5"/></g><!--MD5=[faebc81c07309c527f2fda51bf6b78ab]
class Annotation--><g id="elem_Annotation"><rect codeLine="28" fill="#F1F1F1" height="96.8906" id="Annotation" rx="2.5" ry="2.5" style="stroke:#181818;stroke-width:0.5;" width="188" x="211" y="97"/><ellipse cx="263.25" cy="113" fill="#E3664A" rx="11" ry="11" style="stroke:#181818;stroke-width:1.0;"/><path d="M265.3281,113.4688 Q265.3281,112.5313 264.9063,112 Q264.4844,111.4688 263.7344,111.4688 Q263,111.4688 262.5781,112 Q262.1719,112.5313 262.1719,113.4688 Q262.1719,114.4219 262.5781,114.9531 Q263,115.4844 263.7344,115.4844 Q264.4844,115.4844 264.9063,114.9531 Q265.3281,114.4219 265.3281,113.4688 Z M266.875,116.875 L265.25,116.875 L265.25,116.2031 Q264.9219,116.6406 264.5,116.8438 Q264.0781,117.0469 263.4688,117.0469 Q262.1094,117.0469 261.2813,116.0781 Q260.4531,115.0938 260.4531,113.4688 Q260.4531,111.875 261.2813,110.9063 Q262.1094,109.9219 263.4688,109.9219 Q264.0625,109.9219 264.5156,110.125 Q264.9688,110.3281 265.25,110.7188 L265.25,110.375 Q265.25,109.25 264.625,108.6406 Q264,108.0156 262.8594,108.0156 Q261.1406,108.0156 260.0469,109.5469 Q258.9531,111.0625 258.9531,113.5 Q258.9531,116.0469 260.2031,117.5469 Q261.4688,119.0469 263.5781,119.0469 Q264.2344,119.0469 264.8594,118.8594 Q265.4844,118.6719 266.0625,118.2813 L266.8281,119.7344 Q266.1563,120.1875 265.3594,120.4063 Q264.5625,120.6406 263.6563,120.6406 Q260.75,120.6406 259.0156,118.7031 Q257.2969,116.7813 257.2969,113.5 Q257.2969,110.2813 258.8438,108.3594 Q260.4063,106.4219 262.9688,106.4219 Q264.7656,106.4219 265.8125,107.5156 Q266.875,108.6094 266.875,110.4844 L266.875,116.875 Z " fill="#000000"/><text fill="#000000" font-family="sans-serif" font-size="14" lengthAdjust="spacing" textLength="75" x="283.75" y="117.8467">Annotation</text><line style="stroke:#181818;stroke-width:0.5;" x1="212" x2="398" y1="129" y2="129"/><text fill="#000000" font-family="sans-serif" font-size="14" lengthAdjust="spacing" textLength="176" x="217" y="145.9951">annotation with members</text><line style="stroke:#181818;stroke-width:0.5;" x1="212" x2="398" y1="153.2969" y2="153.2969"/><text fill="#000000" font-family="sans-serif" font-size="14" lengthAdjust="spacing" textLength="76" x="217" y="170.292">String foo()</text><text fill="#000000" font-family="sans-serif" font-size="14" lengthAdjust="spacing" textLength="76" x="217" y="186.5889">String bar()</text></g><!--MD5=[c8fdd8c5eecc313c05e608712b0a1a03]
reverse link acc to accsm--><g id="link_acc_accsm"><path codeLine="31" d="M371.66,1433.7 C420.75,1447.3 488.21,1466 540.95,1480.62 " fill="none" id="acc-backto-accsm" style="stroke:#181818;stroke-width:1.0;"/><polygon fill="none" points="369.57,1440.38,352.17,1428.3,373.31,1426.89,369.57,1440.38" style="stroke:#181818;stroke-width:1.0;"/></g><!--MD5=[032c326e318ec8180766ecd587b6aef3]
reverse link acc to accf--><g id="link_acc_accf"><path codeLine="32" d="M372.4,1415.5 C425.34,1415.5 499.3,1415.5 553.23,1415.5 " fill="none" id="acc-backto-accf" style="stroke:#181818;stroke-width:1.0;"/><polygon fill="none" points="372.17,1422.5,352.17,1415.5,372.17,1408.5,372.17,1422.5" style="stroke:#181818;stroke-width:1.0;"/></g><!--MD5=[142394db7dc2a12ad6444388aee6e132]
reverse link acc to u--><g id="link_acc_u"><path codeLine="143" d="M331.01,1378.01 C383.28,1299.64 504.95,1117.24 573.76,1014.07 " fill="none" id="acc-backto-u" style="stroke:#181818;stroke-width:1.0;"/><polygon fill="#181818" points="323.52,1389.23,330.1772,1386.4585,330.1794,1379.2474,323.5222,1382.0189,323.52,1389.23" style="stroke:#181818;stroke-width:1.0;"/><text fill="#000000" font-family="sans-serif" font-size="13" lengthAdjust="spacing" textLength="80" x="430" y="1116.5669">identified via</text><text fill="#000000" font-family="sans-serif" font-size="13" lengthAdjust="spacing" textLength="8" x="317.1989" y="1382.3656">1</text><text fill="#000000" font-family="sans-serif" font-size="13" lengthAdjust="spacing" textLength="8" x="563.9638" y="1028.8094">1</text></g><!--MD5=[9bf80fcdf049d76800bd6df05f5ff2aa]
reverse link u to us--><g id="link_u_us"><path codeLine="145" d="M686.27,1008.4 C745.52,1067.6 841.47,1143.5 944,1143.5 " fill="none" id="u-backto-us" style="stroke:#181818;stroke-width:1.0;"/><polygon fill="#181818" points="677.08,999.05,678.4337,1006.1329,685.4925,1007.6075,684.1387,1000.5246,677.08,999.05" style="stroke:#181818;stroke-width:1.0;"/><text fill="#000000" font-family="sans-serif" font-size="13" lengthAdjust="spacing" textLength="60" x="757.5" y="1055.5669">issued by</text><text fill="#000000" font-family="sans-serif" font-size="13" lengthAdjust="spacing" textLength="8" x="677.08" y="1011.1169">1</text><text fill="#000000" font-family="sans-serif" font-size="13" lengthAdjust="spacing" textLength="7" x="929.5422" y="1155.6976">*</text></g><!--MD5=[00d1b0ba50fd8c9252bf6143000178ea]
reverse link c to ucee--><g id="link_c_ucee"><path codeLine="148" d="M702.2,604.16 C751.53,606.77 817.02,609.5 875,609.5 " fill="none" id="c-backto-ucee" style="stroke:#181818;stroke-width:1.0;"/><polygon fill="#181818" points="689.05,603.45,694.826,607.7672,701.0326,604.0959,695.2566,599.7788,689.05,603.45" style="stroke:#181818;stroke-width:1.0;"/><text fill="#000000" font-family="sans-serif" font-size="13" lengthAdjust="spacing" textLength="49" x="763" y="601.5669">realizes</text><text fill="#000000" font-family="sans-serif" font-size="13" lengthAdjust="spacing" textLength="8" x="689.05" y="615.5169">1</text><text fill="#000000" font-family="sans-serif" font-size="13" lengthAdjust="spacing" textLength="7" x="861.1914" y="621.6039">*</text></g><!--MD5=[47f7131a8dd847799f61a32cc240e9ea]
reverse link u to ucee--><g id="link_u_ucee"><path codeLine="149" d="M684.71,853.88 C755.93,751.42 866.99,593.5 875,593.5 " fill="none" id="u-backto-ucee" style="stroke:#181818;stroke-width:1.0;"/><polygon fill="#181818" points="677.09,864.85,683.7968,862.2007,683.9308,854.9908,677.224,857.6401,677.09,864.85" style="stroke:#181818;stroke-width:1.0;"/><text fill="#000000" font-family="sans-serif" font-size="13" lengthAdjust="spacing" textLength="77" x="749" y="639.5669">triggered by</text><text fill="#000000" font-family="sans-serif" font-size="13" lengthAdjust="spacing" textLength="8" x="677.09" y="876.9169">1</text><text fill="#000000" font-family="sans-serif" font-size="13" lengthAdjust="spacing" textLength="7" x="861.1914" y="604.7289">*</text></g><!--MD5=[6b43a9a456074439aaf74bc62d143416]
reverse link r to ree--><g id="link_r_ree"><path codeLine="152" d="M685.23,1294.5 C744.53,1294.5 838.05,1294.5 919,1294.5 " fill="none" id="r-backto-ree" style="stroke:#181818;stroke-width:1.0;"/><polygon fill="#181818" points="672.01,1294.5,678.01,1298.5,684.01,1294.5,678.01,1290.5,672.01,1294.5" style="stroke:#181818;stroke-width:1.0;"/><text fill="#000000" font-family="sans-serif" font-size="13" lengthAdjust="spacing" textLength="49" x="763" y="1290.5669">realizes</text><text fill="#000000" font-family="sans-serif" font-size="13" lengthAdjust="spacing" textLength="8" x="679.8975" y="1290.4226">1</text><text fill="#000000" font-family="sans-serif" font-size="13" lengthAdjust="spacing" textLength="7" x="905.082" y="1309.4005">*</text></g><!--MD5=[453a377de815ce89d9abe59020ba1a84]
reverse link u to ree--><g id="link_u_ree"><path codeLine="153" d="M659.77,1026.02 C704.04,1121.7 790.93,1262.5 919,1262.5 " fill="none" id="u-backto-ree" style="stroke:#181818;stroke-width:1.0;"/><polygon fill="#181818" points="654.32,1014.01,653.1588,1021.127,659.2817,1024.9362,660.4429,1017.8192,654.32,1014.01" style="stroke:#181818;stroke-width:1.0;"/><text fill="#000000" font-family="sans-serif" font-size="13" lengthAdjust="spacing" textLength="77" x="749" y="1153.5669">triggered by</text><text fill="#000000" font-family="sans-serif" font-size="13" lengthAdjust="spacing" textLength="8" x="648.0548" y="1031.5452">1</text><text fill="#000000" font-family="sans-serif" font-size="13" lengthAdjust="spacing" textLength="7" x="905.082" y="1274.6505">*</text></g><!--MD5=[412a712fdaed9a0fa5a63ad7ed584fab]
reverse link ri to mt--><g id="link_ri_mt"><path codeLine="156" d="M1059.36,1501.03 C1116.37,1492.38 1203.11,1481.5 1279,1481.5 " fill="none" id="ri-backto-mt" style="stroke:#181818;stroke-width:1.0;"/><polygon fill="none" points="1046.24,1503.06,1052.784,1506.0891,1058.0971,1501.2135,1051.553,1498.1844,1046.24,1503.06" style="stroke:#181818;stroke-width:1.0;"/><text fill="#000000" font-family="sans-serif" font-size="13" lengthAdjust="spacing" textLength="80" x="1156" y="1478.5669">explained by</text><text fill="#000000" font-family="sans-serif" font-size="13" lengthAdjust="spacing" textLength="7" x="1054.1331" y="1515.0066">*</text><text fill="#000000" font-family="sans-serif" font-size="13" lengthAdjust="spacing" textLength="7" x="1264.8891" y="1496.7855">*</text></g><!--MD5=[0c302febe5e1aaa4be9f9b2afc30c763]
reverse link r to i--><g id="link_r_i"><path codeLine="157" d="M684.98,1310.76 C758.52,1330.86 882.11,1364.64 948.87,1382.89 " fill="none" id="r-backto-i" style="stroke:#181818;stroke-width:1.0;"/><polygon fill="none" points="672.3,1307.29,677.033,1312.7305,683.8753,1310.4541,679.1424,1305.0136,672.3,1307.29" style="stroke:#181818;stroke-width:1.0;"/><text fill="#000000" font-family="sans-serif" font-size="13" lengthAdjust="spacing" textLength="97" x="739" y="1322.5669">recycling saves</text><text fill="#000000" font-family="sans-serif" font-size="13" lengthAdjust="spacing" textLength="24" x="679.9619" y="1321.9601">0..1</text><text fill="#000000" font-family="sans-serif" font-size="13" lengthAdjust="spacing" textLength="7" x="941.87" y="1394.9569">*</text></g><!--MD5=[d4e3388b5270ad0a18b482f8ef29c29d]
reverse link i to mt--><g id="link_i_mt"><path codeLine="160" d="M1049.28,1397.71 C1129.21,1400.18 1216.13,1424.14 1271.74,1442.44 " fill="none" id="i-backto-mt" style="stroke:#181818;stroke-width:1.0;"/><polygon fill="none" points="1036,1397.5,1041.9377,1401.5919,1047.9986,1397.6848,1042.0609,1393.5929,1036,1397.5" style="stroke:#181818;stroke-width:1.0;"/><text fill="#000000" font-family="sans-serif" font-size="13" lengthAdjust="spacing" textLength="7" x="1042.9156" y="1412.9311">*</text><text fill="#000000" font-family="sans-serif" font-size="13" lengthAdjust="spacing" textLength="7" x="1264.74" y="1454.5069">*</text></g><!--MD5=[6e5240d9dee4f3fc978522837fee0f29]
reverse link g to gcm--><g id="link_g_gcm"><path codeLine="163" d="M146.73,735.54 C278.99,737.79 582.28,743.94 837,756.5 C861.85,757.73 888.88,759.46 913.44,761.19 " fill="none" id="g-backto-gcm" style="stroke:#181818;stroke-width:1.0;"/><polygon fill="#181818" points="133.72,735.32,139.6488,739.4249,145.7181,735.531,139.7894,731.4261,133.72,735.32" style="stroke:#181818;stroke-width:1.0;"/><text fill="#000000" font-family="sans-serif" font-size="13" lengthAdjust="spacing" textLength="45" x="447.5" y="737.5669">sent to</text><text fill="#000000" font-family="sans-serif" font-size="13" lengthAdjust="spacing" textLength="8" x="141.6777" y="748.5285">1</text><text fill="#000000" font-family="sans-serif" font-size="13" lengthAdjust="spacing" textLength="8" x="905.44" y="773.2569">1</text></g><!--MD5=[65dbf6f7546b1ae9ad215cce5b06be6b]
reverse link u to gcm--><g id="link_u_gcm"><path codeLine="164" d="M688.46,897.82 C704.28,888.2 721.48,878.47 738,870.5 C780.17,850.16 797.28,859.29 837,834.5 C881,807.04 869.14,753.5 921,753.5 " fill="none" id="u-backto-gcm" style="stroke:#181818;stroke-width:1.0;"/><polygon fill="none" points="677.2,904.77,684.407,905.0139,687.404,898.4551,680.197,898.2112,677.2,904.77" style="stroke:#181818;stroke-width:1.0;"/><text fill="#000000" font-family="sans-serif" font-size="13" lengthAdjust="spacing" textLength="62" x="756.5" y="830.5669">written by</text><text fill="#000000" font-family="sans-serif" font-size="13" lengthAdjust="spacing" textLength="8" x="677.2" y="916.8369">1</text><text fill="#000000" font-family="sans-serif" font-size="13" lengthAdjust="spacing" textLength="8" x="905.4703" y="748.4533">1</text></g><!--MD5=[1013178c9ff47805457af71fd132fe2b]
reverse link u to bc--><g id="link_u_bc"><path codeLine="167" d="M690.41,938.17 C807.17,935.89 1060.36,931.5 1274,931.5 " fill="none" id="u-backto-bc" style="stroke:#181818;stroke-width:1.0;"/><polygon fill="none" points="677.2,938.43,683.2779,942.3106,689.1977,938.1927,683.1197,934.3121,677.2,938.43" style="stroke:#181818;stroke-width:1.0;"/><text fill="#000000" font-family="sans-serif" font-size="13" lengthAdjust="spacing" textLength="62" x="965" y="927.5669">written by</text><text fill="#000000" font-family="sans-serif" font-size="13" lengthAdjust="spacing" textLength="8" x="677.2" y="950.4969">1</text><text fill="#000000" font-family="sans-serif" font-size="13" lengthAdjust="spacing" textLength="8" x="1258.9469" y="942.7372">1</text></g><!--MD5=[06ebf2b6c59147c52561075446b1311f]
reverse link u to bp--><g id="link_u_bp"><path codeLine="168" d="M689.87,956.62 C753.84,972.1 854.98,992.5 944,992.5 " fill="none" id="u-backto-bp" style="stroke:#181818;stroke-width:1.0;"/><polygon fill="none" points="677.2,953.49,682.0663,958.8115,688.8502,956.3663,683.9839,951.0447,677.2,953.49" style="stroke:#181818;stroke-width:1.0;"/><text fill="#000000" font-family="sans-serif" font-size="13" lengthAdjust="spacing" textLength="62" x="756.5" y="963.5669">written by</text><text fill="#000000" font-family="sans-serif" font-size="13" lengthAdjust="spacing" textLength="8" x="677.2" y="965.5569">1</text><text fill="#000000" font-family="sans-serif" font-size="13" lengthAdjust="spacing" textLength="8" x="928.475" y="1002.5077">1</text></g><!--MD5=[eb5d7c9195a6ada222b51139d6fa6313]
reverse link bp to bc--><g id="link_bp_bc"><path codeLine="169" d="M1062.03,1056.16 C1137.26,1052.3 1214.75,1016.15 1266.93,986.2 " fill="none" id="bp-backto-bc" style="stroke:#181818;stroke-width:1.0;"/><polygon fill="#181818" points="1049,1056.5,1055.0992,1060.3471,1060.9962,1056.1968,1054.897,1052.3497,1049,1056.5" style="stroke:#181818;stroke-width:1.0;"/><text fill="#000000" font-family="sans-serif" font-size="13" lengthAdjust="spacing" textLength="62" x="1165" y="999.5669">discusses</text><text fill="#000000" font-family="sans-serif" font-size="13" lengthAdjust="spacing" textLength="8" x="1055.5906" y="1074.195">1</text><text fill="#000000" font-family="sans-serif" font-size="13" lengthAdjust="spacing" textLength="7" x="1259.93" y="998.2669">*</text></g><!--MD5=[12440bd15530bac88a775af0e4a32e60]
reverse link g to u--><g id="link_g_u"><path codeLine="172" d="M144,792.35 C210.31,848.06 319.11,929.46 429,968.5 C492.3,990.99 512.32,982.5 579.5,982.5 " fill="none" id="g-backto-u" style="stroke:#181818;stroke-width:1.0;"/><polygon fill="none" points="133.73,783.63,135.7221,790.5605,142.8856,791.3872,140.8936,784.4567,133.73,783.63" style="stroke:#181818;stroke-width:1.0;"/><text fill="#000000" font-family="sans-serif" font-size="13" lengthAdjust="spacing" textLength="56" x="277" y="841.5669">supports</text><text fill="#000000" font-family="sans-serif" font-size="13" lengthAdjust="spacing" textLength="8" x="141.3188" y="802.9751">1</text><text fill="#000000" font-family="sans-serif" font-size="13" lengthAdjust="spacing" textLength="23" x="548.9078" y="1001.2694">1..*</text></g><!--MD5=[1106d684dea5c77897e4ad50744b220b]
reverse link g to gcee--><g id="link_g_gcee"><path codeLine="174" d="M93.32,666.67 C109.86,604.65 144.16,516.14 211,472.5 C334.53,391.85 726.47,438.5 874,438.5 " fill="none" id="g-backto-gcee" style="stroke:#181818;stroke-width:1.0;"/><polygon fill="#181818" points="90.05,679.48,95.409,674.6549,93.0162,667.8524,87.6572,672.6774,90.05,679.48" style="stroke:#181818;stroke-width:1.0;"/><text fill="#000000" font-family="sans-serif" font-size="13" lengthAdjust="spacing" textLength="49" x="445.5" y="420.5669">triggers</text><text fill="#000000" font-family="sans-serif" font-size="13" lengthAdjust="spacing" textLength="8" x="83.0173" y="668.559">1</text><text fill="#000000" font-family="sans-serif" font-size="13" lengthAdjust="spacing" textLength="7" x="860.1367" y="449.7289">*</text></g><!--MD5=[1eab05129ac568aeb89b3f85cb04944a]
reverse link c to gcee--><g id="link_c_gcee"><path codeLine="175" d="M700.68,558.72 C741.46,536.13 792.5,507.1 837,479.5 C853.87,469.04 854.15,454.5 874,454.5 " fill="none" id="c-backto-gcee" style="stroke:#181818;stroke-width:1.0;"/><polygon fill="#181818" points="689.19,565.07,696.3759,565.6719,699.6954,559.2703,692.5095,558.6683,689.19,565.07" style="stroke:#181818;stroke-width:1.0;"/><text fill="#000000" font-family="sans-serif" font-size="13" lengthAdjust="spacing" textLength="81" x="747" y="475.5669">described by</text><text fill="#000000" font-family="sans-serif" font-size="13" lengthAdjust="spacing" textLength="8" x="689.19" y="577.1369">1</text><text fill="#000000" font-family="sans-serif" font-size="13" lengthAdjust="spacing" textLength="7" x="860.1367" y="466.6039">*</text></g><!--MD5=[876ec426711414a36aa77f92bf35e1e4]
reverse link cb to c--><g id="link_cb_c"><path codeLine="178" d="M383.37,585.5 C435.42,585.5 505.59,585.5 567.5,585.5 " fill="none" id="cb-backto-c" style="stroke:#181818;stroke-width:1.0;"/><polygon fill="#181818" points="370.21,585.5,376.21,589.5,382.21,585.5,376.21,581.5,370.21,585.5" style="stroke:#181818;stroke-width:1.0;"/><text fill="#000000" font-family="sans-serif" font-size="13" lengthAdjust="spacing" textLength="59" x="440.5" y="581.5669">based on</text><text fill="#000000" font-family="sans-serif" font-size="13" lengthAdjust="spacing" textLength="8" x="378.2124" y="598.4264">1</text><text fill="#000000" font-family="sans-serif" font-size="13" lengthAdjust="spacing" textLength="7" x="553.1266" y="596.6923">*</text></g><!--MD5=[00308d07b6a5721fb0cf5861877e6652]
reverse link List to AbstractList--><g id="link_List_AbstractList"><path codeLine="8" d="M126.35,342.5 C161.99,342.5 211.13,342.5 248.7,342.5 " fill="none" id="List-backto-AbstractList" style="stroke:#181818;stroke-width:1.0;"/><polygon fill="none" points="126.13,349.5,106.13,342.5,126.13,335.5,126.13,349.5" style="stroke:#181818;stroke-width:1.0;"/></g><!--MD5=[1822909749df1453bdd84de7a60a3406]
reverse link Collection to AbstractCollection--><g id="link_Collection_AbstractCollection"><path codeLine="9" d="M148.88,259.5 C173.36,259.5 201.04,259.5 226.17,259.5 " fill="none" id="Collection-backto-AbstractCollection" style="stroke:#181818;stroke-width:1.0;"/><polygon fill="none" points="148.77,266.5,128.77,259.5,148.77,252.5,148.77,266.5" style="stroke:#181818;stroke-width:1.0;"/></g><!--MD5=[0159284274f96a472eb2618ad803aaca]
reverse link Collection to List--><g id="link_Collection_List"><path codeLine="11" d="M78.5,303.95 C78.5,308.69 78.5,313.44 78.5,318.18 " fill="none" id="Collection-backto-List" style="stroke:#181818;stroke-width:1.0;"/><polygon fill="none" points="71.5,303.8,78.5,283.8,85.5,303.8,71.5,303.8" style="stroke:#181818;stroke-width:1.0;"/></g><!--MD5=[7a3a52e8f65ef1a8d8d29530ea5cd870]
reverse link AbstractCollection to AbstractList--><g id="link_AbstractCollection_AbstractList"><path codeLine="12" d="M305,303.95 C305,308.69 305,313.44 305,318.18 " fill="none" id="AbstractCollection-backto-AbstractList" style="stroke:#181818;stroke-width:1.0;"/><polygon fill="none" points="298,303.8,305,283.8,312,303.8,298,303.8" style="stroke:#181818;stroke-width:1.0;"/></g><!--MD5=[40e4bb1af59cca28d4643aaff05088cc]
reverse link AbstractList to ArrayList--><g id="link_AbstractList_ArrayList"><path codeLine="13" d="M381.37,342.5 C430.53,342.5 494.57,342.5 544.44,342.5 " fill="none" id="AbstractList-backto-ArrayList" style="stroke:#181818;stroke-width:1.0;"/><polygon fill="none" points="381.3,349.5,361.3,342.5,381.3,335.5,381.3,349.5" style="stroke:#181818;stroke-width:1.0;"/></g><!--MD5=[289472044ca187a424de3ba57330da9d]
link cv to TimeUnit--></g></svg>